<?xml version="1.0" encoding="utf-8"?>
<!-- Generator: Adobe Illustrator 27.8.1, SVG Export Plug-In . SVG Version: 6.00 Build 0)  -->
<svg version="1.1" xmlns="http://www.w3.org/2000/svg" xmlns:xlink="http://www.w3.org/1999/xlink" x="0px" y="0px"
	 viewBox="0 0 400 280" enable-background="new 0 0 400 280" xml:space="preserve">
<g id="AMEX" display="none">
	<g id="layer1" transform="translate(-55.5,-1002.3452)" display="inline">
		<path id="path3078" fill="#016FD0" d="M187.111,1086.345h137.048v73.982l-6.783,10.599l6.783,9.433v43.033H187.111v-69.743
			l4.24-4.876l-4.24-4.664V1086.345z"/>
		<path id="path3082" fill="#FFFFFF" d="M213.715,1181.844v-21.516h22.782l2.444,3.186l2.525-3.186h82.692v20.032
			c0,0-2.163,1.462-4.664,1.484h-45.789l-2.756-3.392v3.392h-9.031v-5.79c0,0-1.234,0.808-3.901,0.808h-3.074v4.982h-13.673
			l-2.441-3.255l-2.478,3.255H213.715z"/>
		<path id="path3080" fill="#FFFFFF" d="M187.111,1144.111l5.137-11.977h8.885l2.916,6.709v-6.709h11.044l1.736,4.849l1.683-4.849
			h49.578v2.438c0,0,2.606-2.438,6.889-2.438l16.086,0.056l2.865,6.621v-6.677h9.242l2.544,3.803v-3.803h9.327v21.516h-9.327
			l-2.438-3.816v3.816h-13.579l-1.366-3.392h-3.651l-1.343,3.392h-9.209c-3.686,0-6.042-2.388-6.042-2.388v2.388h-13.885
			l-2.756-3.392v3.392h-51.631l-1.365-3.392h-3.639l-1.355,3.392h-6.347V1144.111z"/>
		<path id="path3046" fill="#016FD0" d="M194.067,1134.786l-6.929,16.111h4.511l1.279-3.226h7.433l1.272,3.226h4.611l-6.923-16.111
			H194.067L194.067,1134.786z M196.631,1138.536l2.266,5.637h-4.538L196.631,1138.536z"/>
		<path id="path3048" fill="#016FD0" d="M206.72,1150.894v-16.111l6.411,0.024l3.729,10.387l3.639-10.411h6.36v16.111h-4.028
			v-11.871l-4.269,11.871h-3.532l-4.281-11.871v11.871H206.72z"/>
		<path id="path3050" fill="#016FD0" d="M229.614,1150.894v-16.111h13.143v3.604h-9.073v2.756h8.861v3.392h-8.861v2.862h9.073v3.498
			H229.614z"/>
		<path id="path3052" fill="#016FD0" d="M245.089,1134.786v16.111h4.028v-5.724h1.696l4.829,5.724h4.922l-5.3-5.936
			c2.175-0.183,4.419-2.05,4.419-4.948c0-3.39-2.661-5.227-5.631-5.227H245.089L245.089,1134.786z M249.117,1138.39h4.604
			c1.104,0,1.908,0.864,1.908,1.696c0,1.07-1.041,1.696-1.848,1.696h-4.664V1138.39L249.117,1138.39z"/>
		<path id="path3054" fill="#016FD0" d="M265.439,1150.894h-4.112v-16.111h4.112V1150.894z"/>
		<path id="path3056" fill="#016FD0" d="M275.191,1150.894h-0.888c-4.295,0-6.903-3.384-6.903-7.989
			c0-4.719,2.579-8.122,8.002-8.122h4.452v3.816h-4.614c-2.202,0-3.759,1.718-3.759,4.346c0,3.12,1.781,4.43,4.346,4.43h1.06
			L275.191,1150.894z"/>
		<path id="path3058" fill="#016FD0" d="M283.955,1134.786l-6.929,16.111h4.511l1.279-3.226h7.433l1.272,3.226h4.611l-6.923-16.111
			H283.955L283.955,1134.786z M286.518,1138.536l2.266,5.637h-4.538L286.518,1138.536L286.518,1138.536z"/>
		<path id="path3060" fill="#016FD0" d="M296.601,1150.894v-16.111h5.121l6.538,10.122v-10.122h4.028v16.111h-4.955l-6.704-10.387
			v10.387H296.601z"/>
		<path id="path3062" fill="#016FD0" d="M216.471,1179.088v-16.111h13.143v3.604h-9.073v2.756h8.861v3.392h-8.861v2.862h9.073v3.498
			L216.471,1179.088z"/>
		<path id="path3064" fill="#016FD0" d="M280.872,1179.088v-16.111h13.143v3.604h-9.073v2.756h8.819v3.392h-8.819v2.862h9.073v3.498
			L280.872,1179.088z"/>
		<path id="path3066" fill="#016FD0" d="M230.124,1179.088l6.399-7.956l-6.552-8.155h5.074l3.902,5.041l3.915-5.041h4.876
			l-6.466,8.055l6.411,8.055h-5.074l-3.789-4.962l-3.696,4.962H230.124z"/>
		<path id="path3068" fill="#016FD0" d="M248.163,1162.98v16.111h4.134v-5.088h4.24c3.587,0,6.307-1.903,6.307-5.604
			c0-3.066-2.133-5.419-5.783-5.419H248.163L248.163,1162.98z M252.296,1166.624h4.465c1.159,0,1.987,0.71,1.987,1.855
			c0,1.075-0.824,1.855-2.001,1.855h-4.452V1166.624L252.296,1166.624z"/>
		<path id="path3072" fill="#016FD0" d="M264.591,1162.977v16.111h4.028v-5.724h1.696l4.829,5.724h4.922l-5.3-5.936
			c2.175-0.183,4.419-2.05,4.419-4.948c0-3.39-2.661-5.227-5.631-5.227H264.591L264.591,1162.977z M268.619,1166.581h4.604
			c1.104,0,1.908,0.864,1.908,1.696c0,1.07-1.041,1.696-1.848,1.696h-4.664V1166.581z"/>
		<path id="path3074" fill="#016FD0" d="M295.88,1179.088v-3.498h8.061c1.193,0,1.709-0.645,1.709-1.351
			c0-0.677-0.515-1.362-1.709-1.362h-3.643c-3.166,0-4.93-1.929-4.93-4.825c0-2.583,1.615-5.074,6.32-5.074h7.843l-1.696,3.625
			h-6.784c-1.297,0-1.696,0.68-1.696,1.33c0,0.668,0.493,1.404,1.484,1.404h3.816c3.53,0,5.061,2.002,5.061,4.624
			c0,2.819-1.707,5.127-5.253,5.127H295.88z"/>
		<path id="path3076" fill="#016FD0" d="M310.663,1179.088v-3.498h8.061c1.193,0,1.709-0.645,1.709-1.351
			c0-0.677-0.515-1.362-1.709-1.362h-3.643c-3.166,0-4.93-1.929-4.93-4.825c0-2.583,1.615-5.074,6.32-5.074h7.843l-1.696,3.625
			h-6.783c-1.297,0-1.696,0.68-1.696,1.33c0,0.668,0.493,1.404,1.484,1.404h3.816c3.53,0,5.061,2.002,5.061,4.624
			c0,2.819-1.707,5.127-5.253,5.127H310.663z"/>
	</g>
</g>
<g id="UnionPay" display="none">
	<g display="inline">
		<path fill="#E21836" d="M130.909,71.399h56.828c7.933,0,12.866,6.466,11.016,14.425l-26.457,113.592
			c-1.867,7.931-9.809,14.403-17.748,14.403H97.725c-7.922,0-12.866-6.471-11.016-14.403l26.468-113.592
			C115.028,77.865,122.966,71.399,130.909,71.399"/>
		<path fill="#00447C" d="M183.008,71.399h65.35c7.931,0,4.355,6.466,2.489,14.425l-26.453,113.592
			c-1.856,7.931-1.277,14.403-9.225,14.403h-65.35c-7.948,0-12.866-6.471-10.999-14.403l26.452-113.592
			C167.15,77.865,175.071,71.399,183.008,71.399"/>
		<path fill="#007B84" d="M245.766,71.399h56.828c7.944,0,12.878,6.466,11.012,14.425l-26.453,113.592
			c-1.867,7.931-9.815,14.403-17.757,14.403h-56.801c-7.948,0-12.878-6.471-11.016-14.403l26.457-113.592
			C229.886,77.865,237.818,71.399,245.766,71.399"/>
		<path fill="#FEFEFE" d="M145.75,107.802c-5.844,0.06-7.57,0-8.121-0.13c-0.212,1.007-4.155,19.198-4.166,19.213
			c-0.849,3.68-1.467,6.304-3.565,7.998c-1.191,0.985-2.582,1.46-4.194,1.46c-2.592,0-4.101-1.287-4.355-3.727l-0.048-0.838
			c0,0,0.79-4.93,0.79-4.957c0,0,4.139-16.577,4.88-18.769c0.039-0.125,0.05-0.19,0.06-0.249c-8.056,0.071-9.484,0-9.582-0.13
			c-0.054,0.179-0.253,1.206-0.253,1.206l-4.226,18.684l-0.363,1.585l-0.702,5.183c0,1.537,0.302,2.792,0.903,3.853
			c1.925,3.364,7.417,3.869,10.524,3.869c4.003,0,7.758-0.85,10.296-2.403c4.405-2.603,5.557-6.671,6.585-10.286l0.476-1.855
			c0,0,4.263-17.217,4.988-19.457C145.702,107.927,145.713,107.862,145.75,107.802z M160.256,121.692
			c-1.028,0-2.906,0.249-4.593,1.076c-0.612,0.314-1.191,0.677-1.802,1.039l0.551-1.99l-0.302-0.335
			c-3.578,0.724-4.378,0.821-7.683,1.287l-0.277,0.184c-0.384,3.182-0.724,5.574-2.147,11.828c-0.542,2.305-1.104,4.632-1.668,6.931
			l0.152,0.292c3.387-0.179,4.414-0.179,7.358-0.13l0.238-0.259c0.374-1.916,0.422-2.364,1.251-6.244
			c0.389-1.839,1.201-5.881,1.601-7.32c0.736-0.341,1.461-0.676,2.154-0.676c1.65,0,1.449,1.439,1.385,2.013
			c-0.071,0.963-0.672,4.107-1.288,6.807l-0.411,1.742c-0.287,1.287-0.601,2.538-0.888,3.813l0.125,0.255
			c3.338-0.179,4.356-0.179,7.207-0.13l0.335-0.259c0.515-2.992,0.666-3.792,1.58-8.149l0.46-2.002
			c0.893-3.917,1.342-5.903,0.666-7.521C163.546,122.129,161.831,121.692,160.256,121.692z M176.461,125.793
			c-1.774,0.341-2.906,0.568-4.031,0.715c-1.115,0.179-2.202,0.341-3.917,0.579l-0.136,0.123l-0.125,0.098
			c-0.179,1.277-0.303,2.381-0.54,3.679c-0.201,1.342-0.51,2.867-1.013,5.058c-0.389,1.677-0.59,2.262-0.812,2.852
			c-0.216,0.59-0.454,1.164-0.892,2.813l0.102,0.152l0.086,0.14c1.603-0.076,2.651-0.13,3.729-0.14c1.076-0.039,2.191,0,3.917,0.01
			l0.151-0.123l0.162-0.136c0.249-1.488,0.287-1.888,0.439-2.614c0.151-0.778,0.411-1.856,1.05-4.734
			c0.302-1.352,0.639-2.7,0.952-4.079c0.326-1.374,0.666-2.727,0.99-4.079l-0.048-0.163L176.461,125.793z M176.499,120.263
			c-1.612-0.952-4.442-0.65-6.347,0.665c-1.899,1.288-2.115,3.117-0.508,4.081c1.585,0.925,4.425,0.65,6.313-0.676
			C177.852,123.017,178.089,121.205,176.499,120.263z M186.249,142.301c3.262,0,6.606-0.899,9.122-3.567
			c1.936-2.164,2.824-5.383,3.132-6.708c1.001-4.394,0.222-6.445-0.758-7.694c-1.488-1.905-4.117-2.515-6.844-2.515
			c-1.64,0-5.546,0.162-8.598,2.975c-2.191,2.029-3.204,4.783-3.815,7.423c-0.616,2.69-1.326,7.532,3.128,9.334
			C182.992,142.139,184.972,142.301,186.249,142.301z M185.995,132.416c0.752-3.327,1.64-6.119,3.906-6.119
			c1.776,0,1.905,2.078,1.115,5.416c-0.141,0.741-0.79,3.496-1.666,4.669c-0.612,0.866-1.337,1.391-2.137,1.391
			c-0.238,0-1.655,0-1.677-2.104C185.524,134.629,185.736,133.568,185.995,132.416z M206.658,141.873l0.255-0.259
			c0.362-1.916,0.421-2.366,1.222-6.244c0.4-1.839,1.229-5.881,1.618-7.32c0.737-0.342,1.45-0.677,2.165-0.677
			c1.639,0,1.439,1.439,1.374,2.013c-0.06,0.964-0.661,4.107-1.288,6.807l-0.389,1.742c-0.298,1.288-0.622,2.538-0.909,3.815
			l0.125,0.255c3.349-0.179,4.329-0.179,7.196-0.13l0.346-0.259c0.503-2.993,0.639-3.794,1.58-8.149l0.449-2.003
			c0.898-3.917,1.352-5.902,0.687-7.52c-0.736-1.813-2.461-2.251-4.014-2.251c-1.029,0-2.917,0.248-4.594,1.076
			c-0.6,0.314-1.201,0.676-1.791,1.039l0.514-1.99l-0.276-0.337c-3.576,0.726-4.394,0.823-7.694,1.288l-0.253,0.184
			c-0.4,3.182-0.726,5.572-2.148,11.828c-0.542,2.305-1.104,4.632-1.666,6.931l0.151,0.292
			C202.708,141.825,203.72,141.825,206.658,141.873z M231.266,142.003c0.211-1.028,1.461-7.12,1.472-7.12c0,0,1.065-4.47,1.13-4.632
			c0,0,0.335-0.465,0.67-0.65h0.493c4.653,0,9.906,0,14.024-3.029c2.802-2.078,4.718-5.146,5.572-8.875
			c0.222-0.914,0.385-2.002,0.385-3.089c0-1.428-0.287-2.841-1.115-3.945c-2.1-2.938-6.282-2.992-11.109-3.014
			c-0.015,0-2.38,0.022-2.38,0.022c-6.179,0.076-8.657,0.054-9.675-0.071c-0.086,0.45-0.248,1.251-0.248,1.251
			s-2.213,10.258-2.213,10.275c0,0-5.297,21.81-5.546,22.838C228.123,141.9,230.335,141.9,231.266,142.003z M235.367,123.78
			c0,0,2.353-10.237,2.342-10.199l0.076-0.525l0.033-0.4l0.941,0.097c0,0,4.853,0.417,4.967,0.428
			c1.916,0.741,2.705,2.651,2.154,5.144c-0.503,2.279-1.981,4.194-3.88,5.119c-1.564,0.784-3.479,0.849-5.453,0.849h-1.277
			L235.367,123.78z M250.019,132.605c-0.622,2.651-1.337,7.494,3.094,9.219c1.413,0.601,2.679,0.78,3.966,0.715
			c1.359-0.073,2.618-0.755,3.784-1.736c-0.105,0.403-0.211,0.806-0.316,1.211l0.201,0.259c3.187-0.134,4.176-0.134,7.629-0.108
			l0.313-0.238c0.504-2.964,0.979-5.842,2.29-11.513c0.639-2.716,1.276-5.406,1.931-8.111l-0.102-0.298
			c-3.565,0.661-4.518,0.802-7.948,1.288l-0.26,0.212c-0.035,0.276-0.071,0.54-0.104,0.805c-0.533-0.862-1.306-1.597-2.499-2.056
			c-1.525-0.6-5.107,0.173-8.186,2.977C251.648,127.232,250.609,129.975,250.019,132.605z M257.507,132.767
			c0.763-3.268,1.64-6.032,3.912-6.032c1.436,0,2.193,1.326,2.039,3.586c-0.122,0.564-0.253,1.158-0.41,1.83
			c-0.227,0.971-0.474,1.934-0.713,2.898c-0.244,0.659-0.528,1.281-0.839,1.695c-0.585,0.828-1.975,1.342-2.776,1.342
			c-0.227,0-1.629,0-1.677-2.067C257.031,134.99,257.243,133.931,257.507,132.767z M296.61,121.978l-0.276-0.314
			c-3.528,0.715-4.166,0.828-7.408,1.266l-0.238,0.238c-0.011,0.039-0.021,0.098-0.037,0.152l-0.011-0.054
			c-2.413,5.567-2.342,4.366-4.306,8.748c-0.011-0.199-0.011-0.324-0.022-0.536l-0.492-9.501l-0.309-0.314
			c-3.696,0.715-3.783,0.828-7.196,1.266l-0.266,0.238c-0.037,0.114-0.037,0.238-0.06,0.374l0.022,0.048
			c0.427,2.18,0.324,1.694,0.752,5.135c0.199,1.688,0.465,3.387,0.665,5.054c0.337,2.791,0.525,4.165,0.936,8.424
			c-2.305,3.804-2.851,5.243-5.07,8.581l0.015,0.033l-1.562,2.471c-0.179,0.26-0.341,0.439-0.568,0.515
			c-0.249,0.123-0.573,0.145-1.024,0.145h-0.866l-1.287,4.28l4.414,0.076c2.592-0.011,4.22-1.223,5.097-2.852l2.776-4.757h-0.044
			l0.292-0.335C282.407,146.343,296.61,121.978,296.61,121.978z M250.019,178.19h-1.873l6.931-22.925h2.299l0.73-2.362l0.071,2.626
			c-0.086,1.623,1.191,3.063,4.546,2.824h3.88l1.335-4.414h-1.46c-0.839,0-1.229-0.212-1.18-0.666l-0.071-2.672h-7.185v0.014
			c-2.323,0.048-9.26,0.223-10.664,0.597c-1.7,0.438-3.491,1.726-3.491,1.726l0.704-2.364h-6.721l-1.4,4.691l-7.024,23.276h-1.363
			l-1.337,4.383h13.386l-0.449,1.461h6.596l0.438-1.461h1.851L250.019,178.19z M244.527,159.923
			c-1.076,0.298-3.079,1.201-3.079,1.201l1.781-5.859h5.34l-1.288,4.269C247.281,159.534,245.631,159.631,244.527,159.923z
			 M244.63,168.294c0,0-1.677,0.211-2.781,0.46c-1.087,0.33-3.126,1.369-3.126,1.369l1.839-6.097h5.367L244.63,168.294z
			 M241.638,178.244h-5.356l1.553-5.146h5.34L241.638,178.244z M254.537,164.025h7.721l-1.109,3.593h-7.823l-1.175,3.928h6.845
			l-5.183,7.298c-0.363,0.536-0.688,0.726-1.05,0.877c-0.363,0.184-0.839,0.4-1.391,0.4h-1.899l-1.305,4.302h4.967
			c2.582,0,4.107-1.175,5.233-2.716l3.554-4.865l0.763,4.939c0.162,0.925,0.827,1.467,1.277,1.677
			c0.497,0.249,1.011,0.677,1.737,0.741c0.778,0.033,1.341,0.06,1.715,0.06h2.441l1.465-4.815h-0.963
			c-0.553,0-1.504-0.093-1.666-0.266c-0.162-0.211-0.162-0.535-0.249-1.028l-0.774-4.95h-3.171l1.391-1.655h7.808l1.201-3.928
			h-7.229l1.126-3.593h7.207l1.337-4.431h-21.486L254.537,164.025z M189.328,179.245l1.802-5.995h7.406l1.353-4.459h-7.413
			l1.132-3.69h7.244l1.342-4.317h-18.126l-1.314,4.317h4.118l-1.098,3.69h-4.129l-1.368,4.535h4.117l-2.402,7.931
			c-0.324,1.05,0.152,1.45,0.454,1.938c0.309,0.475,0.622,0.79,1.326,0.968c0.726,0.162,1.223,0.259,1.899,0.259h8.35l1.488-4.939
			l-3.701,0.508C191.091,179.991,189.111,179.906,189.328,179.245z M190.177,150.547l-1.877,3.392
			c-0.402,0.741-0.763,1.201-1.089,1.413c-0.287,0.179-0.855,0.253-1.677,0.253h-0.979l-1.309,4.34h3.252
			c1.564,0,2.765-0.573,3.338-0.86c0.616-0.33,0.778-0.141,1.255-0.601l1.098-0.952h10.156l1.348-4.518h-7.434l1.298-2.467H190.177z
			 M205.17,179.332c-0.173-0.249-0.048-0.688,0.216-1.603l2.776-9.188h9.875c1.439-0.021,2.478-0.037,3.154-0.086
			c0.726-0.076,1.515-0.335,2.375-0.801c0.888-0.488,1.342-1.001,1.726-1.592c0.428-0.589,1.115-1.877,1.705-3.863l3.489-11.627
			l-10.247,0.06c0,0-3.155,0.465-4.545,0.979c-1.402,0.573-3.405,2.175-3.405,2.175l0.925-3.187h-6.33l-8.862,29.391
			c-0.314,1.141-0.525,1.97-0.573,2.467c-0.017,0.536,0.676,1.067,1.125,1.467c0.531,0.4,1.314,0.335,2.067,0.4
			c0.791,0.06,1.916,0.097,3.468,0.097h4.865l1.493-5.042l-4.355,0.411C205.647,179.792,205.31,179.543,205.17,179.332z
			 M209.953,162.336h10.372l-0.659,2.067c-0.093,0.048-0.314-0.103-1.37,0.022h-8.981L209.953,162.336z M212.031,155.405h10.459
			l-0.752,2.489c0,0-4.93-0.048-5.719,0.097c-3.474,0.601-5.503,2.457-5.503,2.457L212.031,155.405z M219.898,171.324
			c-0.086,0.309-0.222,0.497-0.411,0.639c-0.211,0.136-0.551,0.184-1.06,0.184h-1.478l0.087-2.517h-6.147l-0.249,12.304
			c-0.01,0.888,0.076,1.402,0.726,1.813c0.65,0.514,2.651,0.579,5.345,0.579h3.852l1.391-4.606l-3.353,0.184l-1.115,0.065
			c-0.152-0.065-0.298-0.125-0.46-0.287c-0.141-0.14-0.38-0.054-0.341-0.942l0.026-3.154l3.517-0.145
			c1.899,0,2.711-0.618,3.403-1.206c0.661-0.564,0.877-1.212,1.126-2.089l0.59-2.792h-4.833L219.898,171.324z"/>
	</g>
</g>
<g id="Diners" display="none">
	<g id="__x0023_Layer_x0020_1" display="inline">
		<path fill="#0079BE" d="M120.278,171.633c17.795,0.085,34.038-14.513,34.038-32.272c0-19.42-16.243-32.844-34.038-32.838h-15.315
			c-18.008-0.006-32.831,13.421-32.831,32.838c0,17.763,14.823,32.357,32.831,32.272H120.278z"/>
		<path fill="#FFFFFF" d="M105.035,109.214c-16.456,0.005-29.79,13.344-29.794,29.806c0.004,16.459,13.338,29.797,29.794,29.802
			c16.46-0.005,29.797-13.342,29.799-29.802C134.832,122.557,121.495,109.219,105.035,109.214z M86.149,139.02L86.149,139.02
			c0.016-8.044,5.04-14.904,12.124-17.63v35.256C91.189,153.921,86.165,147.065,86.149,139.02z M111.794,156.653L111.794,156.653
			v-35.265c7.087,2.719,12.119,9.583,12.132,17.631C123.913,147.07,118.881,153.929,111.794,156.653z"/>
		<path fill="#211E1F" d="M164.751,120.531c0-3.08-1.606-2.877-3.146-2.911v-0.89c1.334,0.066,2.703,0.066,4.04,0.066
			c1.438,0,3.39-0.066,5.924-0.066c8.865,0,13.692,5.922,13.692,11.986c0,3.391-1.984,11.916-14.104,11.916
			c-1.745,0-3.356-0.067-4.965-0.067c-1.54,0-3.048,0.034-4.588,0.067v-0.889c2.053-0.207,3.048-0.275,3.146-2.604L164.751,120.531
			L164.751,120.531z M168.108,136.592L168.108,136.592c0,2.637,1.885,2.944,3.562,2.944c7.397,0,9.826-5.582,9.826-10.685
			c0-6.401-4.109-11.023-10.716-11.023c-1.406,0-2.051,0.101-2.672,0.137L168.108,136.592L168.108,136.592z"/>
		<path fill="#211E1F" d="M186.464,139.743h0.649c0.957,0,1.643,0,1.643-1.133v-9.278c0-1.505-0.513-1.714-1.78-2.395v-0.549
			c1.608-0.483,3.528-1.129,3.662-1.232c0.242-0.137,0.446-0.173,0.618-0.173c0.169,0,0.24,0.207,0.24,0.482v13.146
			c0,1.133,0.753,1.133,1.712,1.133h0.581v0.89c-1.165,0-2.364-0.068-3.594-0.068c-1.232,0-2.466,0.034-3.731,0.068L186.464,139.743
			L186.464,139.743z M190.126,119.71L190.126,119.71c-0.891,0-1.677-0.821-1.677-1.712c0-0.858,0.822-1.647,1.677-1.647
			c0.887,0,1.678,0.722,1.678,1.647C191.804,118.923,191.048,119.71,190.126,119.71z"/>
		<path fill="#211E1F" d="M197.041,129.536c0-1.266-0.379-1.607-1.984-2.258v-0.65c1.471-0.479,2.873-0.925,4.517-1.646
			c0.102,0,0.203,0.07,0.203,0.342v2.227c1.955-1.403,3.633-2.57,5.93-2.57c2.907,0,3.934,2.124,3.934,4.794v8.834
			c0,1.133,0.753,1.133,1.713,1.133h0.616v0.89c-1.202,0-2.399-0.068-3.629-0.068c-1.234,0-2.468,0.034-3.699,0.068v-0.89h0.615
			c0.961,0,1.642,0,1.642-1.133v-8.866c0-1.955-1.192-2.912-3.147-2.912c-1.094,0-2.841,0.89-3.975,1.645v10.133
			c0,1.133,0.757,1.133,1.717,1.133h0.615v0.89c-1.198,0-2.398-0.068-3.63-0.068c-1.231,0-2.466,0.034-3.697,0.068v-0.89h0.618
			c0.959,0,1.642,0,1.642-1.133L197.041,129.536L197.041,129.536z"/>
		<path fill="#211E1F" d="M214.573,131.182c-0.071,0.309-0.071,0.822,0,1.987c0.202,3.252,2.296,5.922,5.03,5.922
			c1.885,0,3.36-1.027,4.625-2.293l0.478,0.481c-1.576,2.088-3.527,3.868-6.333,3.868c-5.445,0-6.541-5.275-6.541-7.464
			c0-6.713,4.519-8.699,6.914-8.699c2.775,0,5.755,1.745,5.788,5.375c0,0.208,0,0.411-0.032,0.619l-0.31,0.205H214.573
			L214.573,131.182z M220.634,130.085L220.634,130.085c0.854,0,0.955-0.446,0.955-0.855c0-1.747-1.061-3.151-2.979-3.151
			c-2.086,0-3.524,1.539-3.935,4.006H220.634L220.634,130.085z"/>
		<path fill="#211E1F" d="M225.322,139.743h0.925c0.956,0,1.641,0,1.641-1.133v-9.62c0-1.061-1.265-1.267-1.78-1.541v-0.512
			c2.5-1.063,3.87-1.955,4.182-1.955c0.203,0,0.304,0.103,0.304,0.447v3.081h0.072c0.854-1.334,2.294-3.528,4.381-3.528
			c0.856,0,1.951,0.581,1.951,1.815c0,0.925-0.649,1.749-1.607,1.749c-1.066,0-1.066-0.824-2.262-0.824
			c-0.583,0-2.498,0.788-2.498,2.843v8.044c0,1.133,0.683,1.133,1.643,1.133h1.916v0.89c-1.884-0.035-3.316-0.068-4.791-0.068
			c-1.403,0-2.842,0.034-4.074,0.068L225.322,139.743L225.322,139.743z"/>
		<path fill="#211E1F" d="M238.504,135.871c0.446,2.261,1.814,4.179,4.315,4.179c2.015,0,2.77-1.232,2.77-2.431
			c0-4.041-7.462-2.74-7.462-8.252c0-1.918,1.542-4.385,5.307-4.385c1.094,0,2.566,0.31,3.9,0.996l0.243,3.489h-0.789
			c-0.341-2.155-1.539-3.389-3.732-3.389c-1.369,0-2.669,0.788-2.669,2.259c0,4.01,7.942,2.774,7.942,8.149
			c0,2.259-1.815,4.658-5.89,4.658c-1.369,0-2.978-0.479-4.175-1.163l-0.377-3.939L238.504,135.871L238.504,135.871z"/>
		<path fill="#211E1F" d="M279.245,122.928h-0.854c-0.651-4.005-3.493-5.616-7.326-5.616c-3.94,0-9.658,2.635-9.658,10.853
			c0,6.922,4.933,11.885,10.204,11.885c3.388,0,6.198-2.328,6.883-5.924l0.785,0.204l-0.785,4.999
			c-1.438,0.893-5.307,1.816-7.569,1.816c-8.01,0-13.075-5.171-13.075-12.876c0-7.02,6.264-12.056,12.974-12.056
			c2.772,0,5.443,0.894,8.079,1.819L279.245,122.928L279.245,122.928z"/>
		<path fill="#211E1F" d="M280.48,139.743h0.649c0.96,0,1.647,0,1.647-1.133v-19.07c0-2.227-0.514-2.296-1.816-2.672v-0.548
			c1.369-0.444,2.807-1.062,3.527-1.474c0.373-0.204,0.65-0.377,0.75-0.377c0.209,0,0.278,0.207,0.278,0.482v23.659
			c0,1.133,0.752,1.133,1.712,1.133h0.578v0.89c-1.159,0-2.358-0.068-3.591-0.068c-1.231,0-2.464,0.034-3.732,0.068L280.48,139.743
			L280.48,139.743z"/>
		<path fill="#211E1F" d="M302.463,138.747c0,0.619,0.375,0.652,0.956,0.652c0.412,0,0.924-0.034,1.371-0.034v0.721
			c-1.474,0.136-4.281,0.855-4.932,1.059l-0.172-0.103v-2.771c-2.051,1.677-3.629,2.874-6.061,2.874
			c-1.849,0-3.766-1.198-3.766-4.072v-8.769c0-0.89-0.136-1.747-2.05-1.917v-0.651c1.234-0.034,3.967-0.239,4.414-0.239
			c0.38,0,0.38,0.239,0.38,0.992v8.832c0,1.03,0,3.974,2.976,3.974c1.164,0,2.704-0.89,4.141-2.085v-9.216
			c0-0.682-1.642-1.058-2.872-1.402v-0.616c3.077-0.207,4.998-0.479,5.338-0.479c0.277,0,0.277,0.239,0.277,0.618L302.463,138.747
			L302.463,138.747z"/>
		<path fill="#211E1F" d="M309.275,127.449c1.368-1.164,3.216-2.466,5.101-2.466c3.972,0,6.366,3.462,6.366,7.192
			c0,4.485-3.285,8.972-8.184,8.972c-2.532,0-3.867-0.823-4.758-1.198l-1.026,0.785l-0.717-0.375
			c0.304-2.02,0.478-4.007,0.478-6.095V119.54c0-2.227-0.517-2.296-1.816-2.672v-0.548c1.373-0.444,2.807-1.062,3.527-1.474
			c0.377-0.204,0.65-0.377,0.756-0.377c0.204,0,0.272,0.207,0.272,0.482L309.275,127.449L309.275,127.449L309.275,127.449z
			 M309.275,136.762L309.275,136.762c0,1.302,1.231,3.496,3.525,3.496c3.664,0,5.203-3.598,5.203-6.646
			c0-3.697-2.805-6.778-5.476-6.778c-1.27,0-2.329,0.823-3.253,1.612L309.275,136.762L309.275,136.762z"/>
		<path fill="#211E1F" d="M161.567,160.542h0.262c0.669,0,1.377-0.09,1.377-1.061v-9.761c0-0.972-0.708-1.063-1.377-1.063h-0.262
			v-0.559c0.727,0,1.845,0.074,2.761,0.074c0.93,0,2.046-0.074,2.922-0.074v0.559h-0.262c-0.668,0-1.377,0.092-1.377,1.063v9.761
			c0,0.97,0.709,1.061,1.377,1.061h0.262v0.562c-0.894,0-2.014-0.074-2.943-0.074c-0.913,0-2.013,0.074-2.74,0.074L161.567,160.542
			L161.567,160.542z"/>
		<path fill="#211E1F" d="M167.25,161.183c-0.9,0-2.016-0.075-2.944-0.075c-0.911,0-2.006,0.075-2.739,0.075h-0.08v-0.08v-0.559
			v-0.081h0.08h0.261c0.676-0.016,1.291-0.07,1.297-0.981v-9.761c-0.006-0.911-0.621-0.972-1.297-0.984h-0.341v-0.079v-0.642h0.08
			c0.733,0,1.849,0.074,2.759,0.074c0.928,0,2.043-0.074,2.923-0.074h0.083v0.085v0.636h-0.083h-0.261
			c-0.676,0.013-1.295,0.074-1.298,0.984v9.761c0.004,0.911,0.623,0.965,1.298,0.981h0.344v0.081v0.639H167.25L167.25,161.183z
			 M167.17,161.024L167.17,161.024v-0.398h-0.181c-0.665,0-1.457-0.115-1.461-1.144v-9.761c0.004-1.03,0.796-1.146,1.461-1.146
			h0.181v-0.395c-0.86,0-1.939,0.072-2.843,0.072c-0.885,0-1.956-0.067-2.677-0.072v0.395h0.178c0.664,0,1.458,0.116,1.458,1.146
			v9.761c0,1.03-0.794,1.144-1.458,1.144h-0.178v0.398c0.721-0.008,1.774-0.075,2.656-0.075
			C165.213,160.949,166.291,161.019,167.17,161.024L167.17,161.024z"/>
		<path fill="#211E1F" d="M180.048,157.431l0.037-0.036v-6.986c0-1.53-1.063-1.752-1.621-1.752h-0.411v-0.559
			c0.877,0,1.734,0.074,2.608,0.074c0.763,0,1.531-0.074,2.293-0.074v0.559h-0.279c-0.784,0-1.66,0.148-1.66,2.365v8.48
			c0,0.651,0.019,1.302,0.111,1.88h-0.709l-9.592-10.695v7.678c0,1.621,0.314,2.178,1.75,2.178h0.315v0.562
			c-0.8,0-1.599-0.074-2.402-0.074c-0.836,0-1.693,0.074-2.533,0.074v-0.562h0.261c1.285,0,1.676-0.873,1.676-2.363v-7.848
			c0-1.043-0.859-1.674-1.694-1.674h-0.243v-0.559c0.708,0,1.434,0.074,2.141,0.074c0.559,0,1.101-0.074,1.659-0.074
			L180.048,157.431L180.048,157.431z"/>
		<path fill="#211E1F" d="M181.126,161.463l-0.769-0.029l-9.454-10.538v7.467c0.022,1.62,0.269,2.08,1.672,2.098h0.399v0.08v0.641
			h-0.083c-0.806,0-1.608-0.075-2.403-0.075c-0.835,0-1.69,0.075-2.535,0.075h-0.081v-0.08v-0.641h0.081h0.262
			c1.231-0.006,1.583-0.797,1.597-2.283v-7.847c-0.003-0.992-0.816-1.594-1.615-1.597h-0.326v-0.083v-0.636h0.081
			c0.712,0,1.442,0.071,2.141,0.071c0.554,0,1.094-0.071,1.722-0.044l8.188,9.218v-6.852c-0.01-1.483-0.998-1.661-1.541-1.674
			h-0.493v-0.083v-0.636h0.083c0.88,0,1.738,0.071,2.608,0.071c0.758,0,1.522-0.071,2.292-0.071h0.081v0.08v0.638h-0.081h-0.278
			c-0.769,0.022-1.558,0.089-1.58,2.287v8.478c0,0.651,0.019,1.302,0.11,1.867l0.018,0.096L181.126,161.463L181.126,161.463z
			 M180.419,161.299L180.419,161.299h0.616c-0.084-0.559-0.098-1.179-0.098-1.798v-8.478c0-2.236,0.937-2.448,1.739-2.448h0.196
			v-0.395c-0.734,0.005-1.47,0.072-2.21,0.072c-0.853,0-1.682-0.067-2.526-0.072l-0.001,0.395h0.329
			c0.572,0,1.703,0.256,1.703,1.836l-0.026,7.04l-0.037,0.039l-0.063,0.058l-8.285-9.369c-0.553,0-1.093,0.072-1.66,0.072
			c-0.683,0-1.382-0.067-2.058-0.072l-0.004,0.395h0.165c0.875,0,1.772,0.668,1.772,1.758v7.847c0,1.489-0.415,2.443-1.754,2.448
			l-0.18-0.005v0.402c0.807-0.008,1.637-0.075,2.452-0.075c0.778,0,1.552,0.067,2.321,0.075v-0.397h-0.235
			c-1.466-0.005-1.831-0.643-1.832-2.263v-7.887L180.419,161.299L180.419,161.299z M180.048,157.43L180.048,157.43l0.059-0.054
			L180.048,157.43z M180.005,157.394L180.005,157.394v-0.006l-0.016-0.013L180.005,157.394z"/>
		<path fill="#211E1F" d="M185.744,149.028c-1.399,0-1.452,0.336-1.731,1.695h-0.559c0.074-0.521,0.167-1.041,0.223-1.584
			c0.075-0.522,0.111-1.041,0.111-1.581h0.448c0.15,0.559,0.615,0.54,1.12,0.54h9.61c0.504,0,0.969-0.018,1.008-0.579l0.444,0.075
			c-0.072,0.504-0.147,1.006-0.204,1.51c-0.034,0.503-0.034,1.006-0.034,1.508l-0.561,0.208c-0.039-0.689-0.132-1.792-1.378-1.792
			h-3.055v9.914c0,1.437,0.653,1.601,1.544,1.601h0.355v0.562c-0.726,0-2.032-0.074-3.036-0.074c-1.117,0-2.424,0.074-3.151,0.074
			v-0.562h0.355c1.027,0,1.546-0.092,1.546-1.562v-9.952H185.744L185.744,149.028z"/>
		<path fill="#211E1F" d="M193.088,161.183c-0.734,0-2.037-0.075-3.039-0.075c-1.116,0-2.42,0.075-3.151,0.075h-0.077v-0.079v-0.642
			h0.077h0.355c1.027-0.025,1.44-0.037,1.464-1.482v-9.871h-2.974v-0.082v-0.083h3.135v10.035c0,1.495-0.602,1.646-1.625,1.647
			h-0.274v0.393c0.735-0.004,1.988-0.071,3.069-0.071c0.972,0,2.217,0.067,2.953,0.071v-0.393h-0.273
			c-0.9-0.001-1.625-0.222-1.625-1.686v-9.996h3.137c1.251,0.005,1.413,1.068,1.455,1.76l0.402-0.149
			c0-0.486,0.003-0.973,0.036-1.464c0.054-0.479,0.123-0.955,0.192-1.43l-0.284-0.048c-0.086,0.543-0.61,0.57-1.079,0.565h-9.608
			h-0.097c-0.438,0-0.917-0.021-1.084-0.541h-0.307c-0.003,0.515-0.039,1.015-0.11,1.511c-0.054,0.512-0.14,1.004-0.209,1.496h0.399
			c0.245-1.298,0.406-1.72,1.796-1.7v0.083v0.081c-1.377,0.025-1.349,0.257-1.652,1.634l-0.014,0.063h-0.065h-0.652l0.01-0.097
			c0.075-0.522,0.169-1.041,0.225-1.584c0.077-0.517,0.114-1.033,0.114-1.568v-0.081h0.079h0.512l0.013,0.058
			c0.128,0.47,0.473,0.473,0.947,0.481h0.097h9.608c0.519-0.008,0.897-0.015,0.929-0.503l0.008-0.088l0.084,0.018l0.526,0.083
			l-0.012,0.081c-0.075,0.499-0.148,1.002-0.203,1.502c-0.037,0.496-0.037,1-0.037,1.502v0.058l-0.052,0.021l-0.66,0.24
			l-0.005-0.109c-0.049-0.7-0.123-1.713-1.3-1.713h-2.974v9.832c0.017,1.406,0.575,1.502,1.462,1.521h0.437v0.08v0.641
			L193.088,161.183L193.088,161.183z"/>
		<path fill="#211E1F" d="M197.014,160.542h0.262c0.669,0,1.378-0.09,1.378-1.061v-9.761c0-0.972-0.709-1.063-1.378-1.063h-0.262
			v-0.559c1.134,0,3.075,0.074,4.636,0.074c1.568,0,3.502-0.074,4.768-0.074c-0.031,0.8-0.014,2.032,0.041,2.85l-0.562,0.15
			c-0.089-1.21-0.313-2.178-2.27-2.178h-2.587v4.879h2.214c1.117,0,1.361-0.632,1.471-1.641h0.558
			c-0.036,0.73-0.056,1.456-0.056,2.182c0,0.709,0.019,1.416,0.056,2.124l-0.558,0.111c-0.11-1.117-0.167-1.843-1.453-1.843h-2.232
			v4.339c0,1.213,1.076,1.213,2.27,1.213c2.236,0,3.222-0.151,3.781-2.272l0.522,0.128c-0.244,0.99-0.466,1.975-0.632,2.965
			c-1.194,0-3.337-0.074-5.011-0.074c-1.679,0-3.895,0.074-4.957,0.074V160.542L197.014,160.542z"/>
		<path fill="#211E1F" d="M206.98,161.183c-1.196,0-3.338-0.076-5.011-0.076c-1.678,0-3.892,0.076-4.956,0.076h-0.079v-0.079v-0.562
			v-0.08h0.079h0.261c0.676-0.01,1.288-0.07,1.297-0.981v-9.761c-0.009-0.909-0.622-0.97-1.297-0.984h-0.34v-0.079v-0.639h0.079
			c1.137,0,3.075,0.071,4.636,0.071c1.567,0,3.5-0.071,4.768-0.071h0.084l-0.004,0.083c-0.013,0.28-0.018,0.611-0.018,0.962
			c0,0.645,0.018,1.349,0.056,1.88l0.003,0.067l-0.062,0.018l-0.655,0.171l-0.004-0.096c-0.11-1.209-0.271-2.086-2.19-2.104h-2.51
			l-0.003,4.717h2.139c1.072-0.01,1.265-0.559,1.391-1.563l0.007-0.074h0.072h0.642l-0.001,0.084
			c-0.036,0.726-0.06,1.452-0.06,2.178c0,0.705,0.024,1.412,0.06,2.121l0.001,0.066l-0.067,0.015l-0.647,0.129l-0.007-0.088
			c-0.128-1.137-0.137-1.76-1.375-1.774l-2.154-0.001v4.262c0.002,1.132,0.978,1.125,2.192,1.132
			c2.243-0.013,3.142-0.121,3.704-2.214l0.018-0.075l0.079,0.014l0.597,0.154l-0.018,0.078c-0.24,0.987-0.464,1.971-0.631,2.958
			l-0.015,0.066H206.98L206.98,161.183z M206.912,161.02L206.912,161.02c0.161-0.939,0.374-1.882,0.603-2.82l-0.368-0.093
			c-0.558,2.085-1.638,2.271-3.837,2.257c-1.173,0-2.349,0-2.354-1.293v-4.421h2.315c1.301-0.014,1.434,0.771,1.526,1.832
			l0.403-0.084c-0.036-0.686-0.053-1.375-0.053-2.058c0-0.701,0.017-1.399,0.053-2.101h-0.403c-0.103,0.97-0.407,1.652-1.542,1.639
			h-2.298v-5.043h2.672c1.938-0.013,2.259,0.987,2.342,2.159l0.402-0.109c-0.032-0.526-0.055-1.2-0.055-1.823
			c0-0.319,0.008-0.62,0.018-0.884c-1.266,0.005-3.152,0.072-4.686,0.072c-1.531,0-3.416-0.067-4.556-0.072v0.395h0.181
			c0.664,0,1.457,0.116,1.46,1.146v9.761c-0.003,1.027-0.796,1.141-1.46,1.146h-0.181v0.393c1.087-0.001,3.239-0.071,4.875-0.071
			C203.612,160.949,205.71,161.019,206.912,161.02L206.912,161.02z"/>
		<path fill="#211E1F" d="M210.128,150.071c0-1.359-0.744-1.415-1.324-1.415h-0.335v-0.561c0.597,0,1.75,0.075,2.887,0.075
			c1.117,0,2.013-0.075,2.999-0.075c2.346,0,4.435,0.634,4.435,3.283c0,1.673-1.117,2.699-2.589,3.279l3.184,4.767
			c0.522,0.788,0.893,1.009,1.807,1.117v0.562c-0.615,0-1.212-0.074-1.826-0.074c-0.577,0-1.176,0.074-1.751,0.074
			c-1.434-1.882-2.666-3.895-3.877-6.039h-1.226v3.989c0,1.437,0.668,1.488,1.524,1.488h0.336v0.562
			c-1.064,0-2.14-0.074-3.204-0.074c-0.895,0-1.771,0.074-2.701,0.074v-0.562h0.335c0.692,0,1.324-0.313,1.324-1.004
			L210.128,150.071L210.128,150.071z M212.514,154.394L212.514,154.394h0.91c1.864,0,2.868-0.708,2.868-2.907
			c0-1.656-1.06-2.719-2.721-2.719c-0.559,0-0.797,0.058-1.057,0.075L212.514,154.394L212.514,154.394z"/>
		<path fill="#211E1F" d="M221.193,161.183c-0.624,0-1.217-0.075-1.829-0.075c-0.568,0-1.163,0.075-1.812,0.044
			c-1.429-1.874-2.654-3.876-3.858-6.005h-1.101v3.904c0.019,1.402,0.583,1.39,1.444,1.411h0.417v0.08v0.641h-0.083
			c-1.064,0-2.146-0.075-3.204-0.075c-0.89,0-1.763,0.075-2.699,0.075h-0.082v-0.08v-0.641h0.082h0.335
			c0.672-0.004,1.238-0.296,1.24-0.924v-9.467c-0.014-1.323-0.661-1.315-1.24-1.334h-0.416v-0.08v-0.642h0.082
			c0.603,0,1.753,0.074,2.887,0.074c1.112,0,2.008-0.074,3-0.074c2.347,0.005,4.51,0.654,4.516,3.359c0,1.683-1.112,2.733-2.55,3.32
			l3.13,4.687c0.521,0.773,0.845,0.965,1.752,1.081l0.068,0.01v0.07v0.641L221.193,161.183L221.193,161.183z M212.511,154.984
			L212.511,154.984h1.274l0.022,0.041c1.214,2.141,2.438,4.151,3.81,5.998c0.568,0,1.166-0.076,1.747-0.076
			c0.595,0,1.169,0.065,1.749,0.074v-0.408c-0.875-0.109-1.284-0.369-1.793-1.143l-3.241-4.851l0.092-0.037
			c1.457-0.573,2.536-1.569,2.537-3.208c-0.001-2.585-2.009-3.184-4.351-3.195c-0.983,0-1.877,0.074-3,0.074
			c-1.094,0-2.199-0.068-2.808-0.074v0.395h0.256c0.579,0.001,1.403,0.097,1.403,1.497v9.467c0,0.748-0.701,1.089-1.403,1.09h-0.256
			v0.393c0.897-0.003,1.745-0.074,2.62-0.074c1.042,0,2.093,0.071,3.124,0.074v-0.393h-0.255c-0.85-0.001-1.607-0.107-1.607-1.577
			v-4.067H212.511L212.511,154.984z M212.511,154.473L212.511,154.473h-0.082v-5.705l0.071-0.006
			c0.255-0.019,0.507-0.072,1.07-0.072c1.698,0,2.801,1.103,2.803,2.802c-0.005,2.225-1.072,2.98-2.951,2.982L212.511,154.473
			L212.511,154.473z M213.423,154.313L213.423,154.313c1.845-0.016,2.772-0.656,2.792-2.822c-0.01-1.628-1.022-2.638-2.645-2.644
			c-0.504,0-0.74,0.046-0.978,0.067v5.399H213.423L213.423,154.313z"/>
		<path fill="#211E1F" d="M233.841,157.431l0.034-0.036v-6.986c0-1.53-1.06-1.752-1.619-1.752h-0.408v-0.559
			c0.875,0,1.73,0.074,2.607,0.074c0.765,0,1.526-0.074,2.294-0.074v0.559h-0.28c-0.783,0-1.659,0.148-1.659,2.365v8.48
			c0,0.651,0.018,1.302,0.11,1.88h-0.707l-9.593-10.695v7.678c0,1.621,0.316,2.178,1.75,2.178h0.317v0.562
			c-0.8,0-1.602-0.074-2.402-0.074c-0.841,0-1.698,0.074-2.535,0.074v-0.562h0.258c1.287,0,1.678-0.873,1.678-2.363v-7.848
			c0-1.043-0.857-1.674-1.693-1.674h-0.243v-0.559c0.705,0,1.435,0.074,2.142,0.074c0.556,0,1.098-0.074,1.657-0.074
			L233.841,157.431L233.841,157.431z"/>
		<path fill="#211E1F" d="M234.921,161.462l-0.767-0.026l-9.455-10.539v7.466c0.022,1.621,0.267,2.081,1.673,2.099h0.394v0.08v0.641
			h-0.082c-0.806,0-1.604-0.076-2.403-0.076c-0.832,0-1.692,0.076-2.531,0.076h-0.084v-0.079v-0.642h0.084h0.258
			c1.23-0.005,1.583-0.797,1.594-2.288v-7.843c-0.001-0.992-0.814-1.594-1.61-1.596h-0.327v-0.079v-0.642h0.084
			c0.711,0,1.439,0.074,2.142,0.074c0.548,0,1.088-0.074,1.713-0.048l8.189,9.221v-6.855c-0.005-1.48-0.997-1.664-1.539-1.672
			h-0.492v-0.079v-0.642h0.082c0.881,0,1.739,0.074,2.609,0.074c0.76,0,1.523-0.074,2.29-0.074h0.081v0.084v0.637h-0.081h-0.277
			c-0.769,0.021-1.561,0.089-1.58,2.287v8.478c0,0.651,0.017,1.297,0.111,1.871l0.01,0.09H234.921L234.921,161.462z
			 M234.213,161.299L234.213,161.299h0.612c-0.082-0.559-0.1-1.179-0.1-1.798v-8.478c0.001-2.236,0.944-2.443,1.743-2.449h0.195
			v-0.394c-0.731,0.005-1.469,0.072-2.209,0.072c-0.855,0-1.686-0.067-2.529-0.072v0.394h0.331c0.573,0.006,1.703,0.257,1.703,1.834
			l-0.026,7.043l-0.036,0.039l-0.057,0.059l-8.291-9.37c-0.553,0-1.093,0.072-1.656,0.072c-0.69,0-1.386-0.067-2.064-0.072v0.394
			h0.165c0.875,0.006,1.773,0.667,1.773,1.758v7.843c0,1.496-0.421,2.448-1.757,2.453l-0.181-0.001v0.394
			c0.805-0.004,1.635-0.071,2.453-0.071c0.782,0,1.556,0.067,2.325,0.071v-0.393h-0.235c-1.467-0.001-1.834-0.643-1.837-2.265
			v-7.883L234.213,161.299L234.213,161.299z M233.841,157.43L233.841,157.43l0.057-0.053L233.841,157.43z M233.794,157.395
			L233.794,157.395v-0.007l-0.014-0.014L233.794,157.395z"/>
		<path fill="#211E1F" d="M239.745,158.439c-0.188,0.632-0.413,1.12-0.413,1.452c0,0.561,0.784,0.651,1.397,0.651h0.208v0.562
			c-0.747-0.04-1.508-0.074-2.258-0.074c-0.67,0-1.337,0.034-2.009,0.074v-0.562h0.112c0.726,0,1.342-0.428,1.617-1.212l2.984-8.55
			c0.24-0.69,0.579-1.621,0.691-2.312c0.593-0.203,1.34-0.575,1.692-0.8c0.058-0.019,0.09-0.039,0.149-0.039
			c0.056,0,0.092,0,0.133,0.058c0.054,0.147,0.109,0.317,0.168,0.465l3.427,9.746c0.223,0.651,0.444,1.34,0.686,1.9
			c0.225,0.522,0.617,0.743,1.234,0.743h0.11v0.562c-0.838-0.04-1.678-0.074-2.569-0.074c-0.913,0-1.847,0.034-2.797,0.074v-0.562
			h0.207c0.426,0,1.155-0.072,1.155-0.539c0-0.242-0.168-0.744-0.376-1.342l-0.725-2.161h-4.228L239.745,158.439L239.745,158.439z
			 M242.463,150.184L242.463,150.184h-0.038l-1.732,5.273h3.482L242.463,150.184z"/>
		<path fill="#211E1F" d="M249.668,161.183c-0.838-0.037-1.677-0.076-2.564-0.076c-0.913,0-1.841,0.039-2.794,0.076l-0.084,0.005
			v-0.084v-0.645h0.082h0.205c0.431,0,1.072-0.098,1.072-0.456c0.005-0.212-0.163-0.724-0.368-1.316l-0.709-2.107h-4.109
			l-0.579,1.882c-0.189,0.636-0.412,1.128-0.411,1.431c0.006,0.455,0.703,0.566,1.32,0.566h0.287v0.084v0.645l-0.084-0.005
			c-0.745-0.037-1.506-0.076-2.249-0.076c-0.668,0-1.34,0.039-2.007,0.076l-0.087,0.005v-0.084v-0.645h0.081h0.111
			c0.694-0.003,1.272-0.396,1.541-1.155l2.983-8.551c0.244-0.691,0.58-1.62,0.742-2.363c0.584-0.198,1.332-0.572,1.691-0.8
			c0.052-0.017,0.103-0.043,0.18-0.043c0.045-0.001,0.146,0.01,0.205,0.109c0.053,0.154,0.111,0.319,0.168,0.47l3.431,9.745
			c0.22,0.654,0.442,1.342,0.685,1.892c0.216,0.497,0.558,0.692,1.157,0.695h0.19v0.084v0.645L249.668,161.183L249.668,161.183z
			 M244.388,161.016L244.388,161.016c0.923-0.032,1.826-0.068,2.716-0.068c0.865,0,1.675,0.036,2.485,0.068v-0.389h-0.026
			c-0.638,0.004-1.079-0.247-1.307-0.796c-0.243-0.566-0.47-1.257-0.688-1.909l-3.43-9.743c-0.057-0.149-0.111-0.318-0.16-0.45
			c-0.015-0.018-0.012-0.018-0.027-0.018h-0.034c-0.039,0-0.061,0.012-0.109,0.025c-0.359,0.234-1.107,0.599-1.659,0.745
			c-0.115,0.705-0.449,1.635-0.692,2.325l-2.982,8.552c-0.284,0.809-0.937,1.27-1.695,1.268h-0.03v0.389
			c0.638-0.032,1.284-0.068,1.931-0.068c0.72,0,1.456,0.036,2.166,0.068v-0.389h-0.12c-0.606-0.008-1.453-0.076-1.477-0.734
			c0.001-0.372,0.23-0.849,0.412-1.478l0.082,0.024l-0.082-0.027l0.614-1.992h4.343l0.748,2.214
			c0.209,0.598,0.379,1.094,0.379,1.368c-0.026,0.572-0.812,0.612-1.235,0.624h-0.124L244.388,161.016L244.388,161.016z
			 M240.579,155.537L240.579,155.537l1.784-5.435h0.062h0.039v0.081l-0.021,0.004l0.021-0.004v-0.081h0.056l1.768,5.435H240.579z
			 M240.803,155.376L240.803,155.376h3.261l-1.621-4.993L240.803,155.376z M242.383,150.207L242.383,150.207l0.043-0.014
			L242.383,150.207z"/>
		<path fill="#211E1F" d="M250.492,149.028c-1.398,0-1.453,0.336-1.734,1.695h-0.559c0.074-0.521,0.168-1.041,0.226-1.584
			c0.075-0.522,0.109-1.041,0.109-1.581h0.449c0.149,0.559,0.616,0.54,1.116,0.54h9.615c0.5,0,0.965-0.018,1.004-0.579l0.446,0.075
			c-0.071,0.504-0.145,1.006-0.202,1.51c-0.04,0.503-0.04,1.006-0.04,1.508l-0.558,0.208c-0.035-0.689-0.128-1.792-1.377-1.792
			h-3.055v9.914c0,1.437,0.654,1.601,1.545,1.601h0.354v0.562c-0.726,0-2.028-0.074-3.036-0.074c-1.116,0-2.422,0.074-3.148,0.074
			v-0.562H252c1.027,0,1.549-0.092,1.549-1.562v-9.952H250.492L250.492,149.028z"/>
		<path fill="#211E1F" d="M257.831,161.183c-0.731,0-2.036-0.075-3.036-0.075c-1.114,0-2.418,0.075-3.148,0.075h-0.083v-0.079
			v-0.642h0.083h0.353c1.027-0.025,1.439-0.037,1.465-1.482l-0.003-9.871h-2.97v-0.082v-0.083h3.134v10.035
			c0,1.495-0.603,1.642-1.626,1.646h-0.274v0.398c0.738-0.008,1.988-0.075,3.069-0.075c0.973,0,2.218,0.067,2.954,0.075v-0.398
			h-0.275c-0.896-0.004-1.621-0.22-1.624-1.685v-9.996h3.137c1.251,0.005,1.414,1.068,1.45,1.76l0.407-0.149
			c0-0.486,0.001-0.973,0.037-1.461c0.052-0.479,0.121-0.957,0.19-1.433l-0.282-0.048c-0.085,0.543-0.611,0.572-1.075,0.565h-9.616
			h-0.094c-0.439,0.005-0.915-0.021-1.084-0.544h-0.305c-0.005,0.517-0.04,1.018-0.114,1.514c-0.049,0.513-0.141,1.006-0.21,1.496
			h0.399c0.247-1.298,0.408-1.72,1.801-1.7v0.083v0.081c-1.381,0.023-1.35,0.257-1.655,1.634l-0.014,0.063h-0.065h-0.654
			l0.012-0.093c0.077-0.526,0.171-1.045,0.225-1.584c0.076-0.521,0.113-1.037,0.113-1.572v-0.081h0.08h0.509l0.016,0.058
			c0.13,0.47,0.47,0.473,0.947,0.481l0.094,0.003h9.616c0.514-0.01,0.89-0.018,0.922-0.504l0.005-0.089l0.088,0.018l0.528,0.083
			l-0.014,0.081c-0.076,0.499-0.147,1.002-0.204,1.502c-0.038,0.496-0.038,1.001-0.038,1.502v0.058l-0.053,0.021l-0.66,0.24
			l-0.004-0.109c-0.048-0.7-0.122-1.713-1.298-1.713h-2.975v9.832c0.019,1.406,0.576,1.502,1.462,1.521h0.437v0.08v0.641
			L257.831,161.183L257.831,161.183z"/>
		<path fill="#211E1F" d="M261.852,160.542h0.261c0.673,0,1.377-0.09,1.377-1.061v-9.761c0-0.972-0.704-1.063-1.377-1.063h-0.261
			v-0.559c0.727,0,1.844,0.074,2.754,0.074c0.935,0,2.053-0.074,2.929-0.074v0.559h-0.261c-0.67,0-1.381,0.092-1.381,1.063v9.761
			c0,0.97,0.711,1.061,1.381,1.061h0.261v0.562c-0.895,0-2.014-0.074-2.943-0.074c-0.915,0-2.013,0.074-2.74,0.074L261.852,160.542
			L261.852,160.542z"/>
		<path fill="#211E1F" d="M267.535,161.183c-0.9,0-2.015-0.076-2.944-0.076c-0.911,0-2.011,0.076-2.739,0.076h-0.081v-0.079v-0.562
			v-0.08h0.081h0.261c0.673-0.01,1.291-0.068,1.293-0.981v-9.761c-0.003-0.909-0.62-0.972-1.293-0.984h-0.342v-0.079v-0.639h0.081
			c0.727,0,1.846,0.071,2.754,0.071c0.929,0,2.046-0.071,2.929-0.071h0.079v0.08v0.638h-0.079h-0.261
			c-0.681,0.013-1.292,0.075-1.301,0.984v9.761c0.009,0.912,0.62,0.97,1.301,0.981h0.34v0.08v0.641H267.535L267.535,161.183z
			 M267.452,161.02L267.452,161.02v-0.394h-0.177c-0.668,0-1.458-0.117-1.458-1.144v-9.761c0-1.03,0.79-1.146,1.458-1.146h0.177
			v-0.395c-0.86,0.005-1.936,0.072-2.845,0.072c-0.882,0-1.951-0.067-2.673-0.072v0.395h0.18c0.663,0,1.456,0.116,1.458,1.146v9.761
			c-0.003,1.027-0.796,1.144-1.458,1.144h-0.18v0.394c0.718-0.008,1.773-0.071,2.657-0.071
			C265.494,160.949,266.573,161.016,267.452,161.02L267.452,161.02z"/>
		<path fill="#211E1F" d="M274.964,147.818c3.971,0,7.136,2.462,7.136,6.43c0,4.287-3.073,7.135-7.039,7.135
			c-3.953,0-6.968-2.683-6.968-6.689C268.093,150.819,271.09,147.818,274.964,147.818L274.964,147.818z M275.246,160.563
			L275.246,160.563c3.615,0,4.244-3.188,4.244-5.905c0-2.723-1.467-6.02-4.561-6.02c-3.261,0-4.228,2.907-4.228,5.401
			C270.7,157.374,272.227,160.563,275.246,160.563L275.246,160.563z"/>
		<path fill="#211E1F" d="M268.009,154.694c0.008-3.919,3.041-6.951,6.954-6.957v0.081v0.079c-3.829,0-6.793,2.962-6.796,6.796
			c0.009,3.961,2.982,6.604,6.893,6.605c3.927-0.001,6.957-2.81,6.963-7.055c-0.004-3.917-3.121-6.342-7.06-6.347v-0.079v-0.081
			c4.002,0.003,7.21,2.489,7.217,6.507c-0.004,4.331-3.117,7.21-7.121,7.217C271.076,161.454,268.017,158.744,268.009,154.694
			L268.009,154.694L268.009,154.694z M270.619,154.039L270.619,154.039c0.005-2.506,0.984-5.485,4.31-5.485
			c3.162,0.008,4.639,3.367,4.644,6.104c-0.005,2.717-0.644,5.983-4.326,5.983v-0.078v-0.08c3.542-0.005,4.156-3.108,4.165-5.825
			c0-2.701-1.455-5.935-4.483-5.939c-3.196,0.004-4.142,2.838-4.148,5.32c0.003,3.319,1.515,6.436,4.466,6.444v0.08v0.078
			C272.154,160.636,270.624,157.394,270.619,154.039L270.619,154.039z"/>
		<path fill="#211E1F" d="M294.655,157.431l0.038-0.036v-6.986c0-1.53-1.064-1.752-1.624-1.752h-0.403v-0.559
			c0.873,0,1.73,0.074,2.603,0.074c0.766,0,1.53-0.074,2.294-0.074v0.559h-0.282c-0.78,0-1.657,0.148-1.657,2.365v8.48
			c0,0.651,0.018,1.302,0.113,1.88h-0.707l-9.596-10.695v7.678c0,1.621,0.315,2.178,1.749,2.178h0.319v0.562
			c-0.802,0-1.602-0.074-2.403-0.074c-0.838,0-1.697,0.074-2.536,0.074v-0.562h0.262c1.288,0,1.674-0.873,1.674-2.363v-7.848
			c0-1.043-0.853-1.674-1.694-1.674h-0.243v-0.559c0.708,0,1.435,0.074,2.142,0.074c0.559,0,1.098-0.074,1.659-0.074
			L294.655,157.431L294.655,157.431z"/>
		<path fill="#211E1F" d="M295.737,161.462l-0.771-0.027l-9.453-10.538v7.467c0.02,1.62,0.267,2.079,1.666,2.095h0.403v0.084v0.639
			h-0.082c-0.807,0-1.607-0.075-2.403-0.075c-0.836,0-1.691,0.075-2.537,0.075h-0.078v-0.08v-0.643h0.078h0.264
			c1.229-0.004,1.581-0.794,1.597-2.28v-7.848c-0.003-0.992-0.815-1.594-1.616-1.595h-0.322v-0.079v-0.639h0.078
			c0.715,0,1.44,0.071,2.143,0.071c0.553,0,1.09-0.071,1.721-0.044l8.185,9.217v-6.852c-0.005-1.483-0.997-1.661-1.543-1.674h-0.49
			v-0.079v-0.639h0.084c0.877,0,1.736,0.071,2.603,0.071c0.765,0,1.525-0.071,2.297-0.071h0.08v0.08v0.638h-0.08h-0.282
			c-0.766,0.022-1.559,0.092-1.575,2.287v8.478c0,0.651,0.014,1.301,0.105,1.87l0.015,0.09L295.737,161.462L295.737,161.462z
			 M295.03,161.299L295.03,161.299h0.61c-0.081-0.559-0.096-1.179-0.096-1.798v-8.478c0-2.24,0.939-2.443,1.738-2.449h0.201v-0.394
			c-0.735,0.005-1.471,0.072-2.217,0.072c-0.848,0-1.681-0.067-2.524-0.072v0.394h0.327c0.578,0.006,1.701,0.261,1.701,1.837
			l-0.02,7.041l-0.035,0.039l-0.059,0.059l-8.291-9.37c-0.549,0-1.093,0.072-1.659,0.072c-0.686,0-1.385-0.067-2.063-0.072v0.394
			h0.164c0.875,0.006,1.775,0.667,1.775,1.758v7.848c0,1.49-0.416,2.443-1.756,2.448l-0.183-0.001v0.394
			c0.809-0.004,1.638-0.071,2.457-0.071c0.776,0,1.548,0.067,2.322,0.071v-0.393h-0.24c-1.462-0.001-1.828-0.643-1.828-2.263v-7.887
			L295.03,161.299L295.03,161.299z M294.655,157.43L294.655,157.43l0.059-0.053L294.655,157.43z M294.611,157.395L294.611,157.395
			v-0.007l-0.016-0.014L294.611,157.395z"/>
		<path fill="#211E1F" d="M300.556,158.439c-0.182,0.632-0.408,1.12-0.408,1.452c0,0.561,0.784,0.651,1.395,0.651h0.208v0.562
			c-0.745-0.04-1.51-0.074-2.255-0.074c-0.673,0-1.341,0.034-2.009,0.074v-0.562h0.106c0.73,0,1.347-0.428,1.623-1.212l2.984-8.55
			c0.24-0.69,0.577-1.621,0.686-2.312c0.597-0.203,1.341-0.575,1.699-0.8c0.053-0.019,0.091-0.039,0.147-0.039
			c0.056,0,0.09,0,0.128,0.058c0.057,0.147,0.115,0.317,0.171,0.465l3.426,9.746c0.223,0.651,0.446,1.34,0.691,1.9
			c0.223,0.522,0.616,0.743,1.229,0.743h0.114v0.562c-0.84-0.04-1.678-0.074-2.573-0.074c-0.911,0-1.843,0.034-2.794,0.074v-0.562
			h0.207c0.425,0,1.156-0.072,1.156-0.539c0-0.242-0.169-0.744-0.377-1.342l-0.723-2.161h-4.23L300.556,158.439L300.556,158.439z
			 M303.28,150.184L303.28,150.184h-0.037l-1.735,5.273h3.486L303.28,150.184z"/>
		<path fill="#211E1F" d="M310.482,161.183c-0.838-0.034-1.675-0.075-2.566-0.075c-0.908,0-1.841,0.041-2.792,0.075l-0.083,0.005
			v-0.085v-0.641h0.08h0.203c0.434,0,1.076-0.101,1.077-0.459c0.004-0.212-0.164-0.72-0.372-1.316l-0.708-2.107h-4.112l-0.576,1.882
			c-0.186,0.638-0.408,1.128-0.404,1.429c0,0.457,0.697,0.571,1.314,0.571h0.284v0.08v0.646l-0.083-0.005
			c-0.746-0.034-1.508-0.075-2.249-0.075c-0.668,0-1.337,0.041-2.009,0.075l-0.082,0.005v-0.085v-0.641h0.082h0.106
			c0.695-0.003,1.276-0.402,1.548-1.158l2.982-8.551c0.238-0.691,0.573-1.62,0.739-2.36c0.585-0.203,1.333-0.575,1.695-0.802
			c0.049-0.017,0.099-0.039,0.176-0.039c0.049-0.005,0.145,0.006,0.204,0.109c0.056,0.146,0.11,0.315,0.172,0.466l3.426,9.745
			c0.222,0.654,0.446,1.342,0.687,1.896c0.218,0.493,0.558,0.689,1.152,0.694h0.194v0.08v0.646L310.482,161.183L310.482,161.183z
			 M305.202,161.019L305.202,161.019c0.921-0.035,1.828-0.071,2.714-0.071c0.867,0,1.679,0.036,2.491,0.068l-0.003-0.389h-0.031
			c-0.631,0.001-1.071-0.247-1.302-0.796c-0.245-0.566-0.468-1.257-0.69-1.907l-3.429-9.746c-0.056-0.149-0.112-0.318-0.158-0.444
			c-0.016-0.023-0.014-0.023-0.029-0.023h-0.035c-0.039,0-0.06,0.013-0.105,0.026c-0.363,0.229-1.11,0.601-1.661,0.744
			c-0.115,0.705-0.453,1.634-0.694,2.325l-2.983,8.552c-0.283,0.809-0.934,1.27-1.696,1.268h-0.027v0.389
			c0.641-0.032,1.282-0.068,1.93-0.068c0.722,0,1.457,0.036,2.174,0.068v-0.389h-0.127c-0.606-0.008-1.456-0.074-1.478-0.736
			c0.004-0.369,0.235-0.844,0.415-1.475l0.076,0.024l-0.076-0.027l0.614-1.992h4.345l0.747,2.214c0.205,0.6,0.375,1.094,0.375,1.368
			c-0.027,0.572-0.809,0.612-1.235,0.624h-0.123L305.202,161.019L305.202,161.019z M301.396,155.536L301.396,155.536l1.787-5.434
			h0.057h0.04v0.081l-0.019,0.004l0.019-0.004v-0.081h0.058l1.761,5.434H301.396z M301.62,155.376L301.62,155.376h3.258l-1.62-4.99
			L301.62,155.376L301.62,155.376z M303.202,150.207L303.202,150.207l0.037-0.014L303.202,150.207z"/>
		<path fill="#211E1F" d="M315.184,159.277c0,0.746,0.517,0.968,1.114,1.044c0.763,0.057,1.602,0.057,2.462-0.037
			c0.78-0.094,1.452-0.541,1.785-1.006c0.297-0.411,0.465-0.933,0.578-1.342h0.54c-0.204,1.062-0.465,2.108-0.69,3.169
			c-1.635,0-3.279-0.074-4.916-0.074c-1.642,0-3.279,0.074-4.918,0.074v-0.562h0.256c0.674,0,1.403-0.09,1.403-1.247v-9.575
			c0-0.972-0.729-1.063-1.403-1.063h-0.256v-0.559c0.984,0,1.954,0.074,2.94,0.074c0.953,0,1.884-0.074,2.834-0.074v0.559h-0.469
			c-0.705,0-1.261,0.021-1.261,1.005V159.277L315.184,159.277z"/>
		<path fill="#211E1F" d="M320.973,161.183c-1.642,0-3.281-0.075-4.915-0.075c-1.641,0-3.28,0.075-4.922,0.075h-0.079v-0.08v-0.641
			h0.079h0.26c0.676-0.016,1.314-0.062,1.322-1.167v-9.579c-0.008-0.906-0.642-0.968-1.322-0.981h-0.339v-0.079v-0.639h0.079
			c0.991,0,1.961,0.071,2.945,0.071c0.946,0,1.876-0.071,2.833-0.071h0.077v0.08v0.638h-0.077h-0.467
			c-0.722,0.021-1.172-0.013-1.186,0.926v9.615c0.005,0.694,0.46,0.881,1.041,0.962c0.329,0.023,0.674,0.037,1.033,0.037
			c0.456,0,0.93-0.022,1.411-0.074c0.759-0.089,1.413-0.527,1.734-0.971c0.287-0.398,0.452-0.909,0.563-1.316l0.017-0.062h0.062
			h0.64l-0.017,0.098c-0.21,1.066-0.466,2.107-0.692,3.168l-0.015,0.063L320.973,161.183L320.973,161.183L320.973,161.183z
			 M320.906,161.02L320.906,161.02c0.216-1.01,0.46-1.999,0.66-3.006h-0.383c-0.116,0.406-0.282,0.906-0.575,1.313
			c-0.348,0.483-1.038,0.938-1.845,1.037c-0.488,0.05-0.971,0.076-1.429,0.076c-0.361,0-0.711-0.017-1.048-0.04
			c-0.606-0.067-1.194-0.326-1.191-1.122v-9.615c0-1.035,0.655-1.088,1.35-1.088h0.385v-0.395c-0.918,0.005-1.823,0.074-2.75,0.074
			c-0.965,0-1.908-0.068-2.864-0.074v0.395h0.178c0.665,0,1.479,0.116,1.479,1.142v9.579c0,1.205-0.81,1.331-1.479,1.331h-0.178
			v0.394c1.611-0.001,3.222-0.071,4.841-0.071S319.294,161.019,320.906,161.02L320.906,161.02z"/>
		<path fill="#211E1F" d="M321.437,147.568c1.122,0,1.961,0.863,1.961,1.969c0,1.101-0.838,1.956-1.961,1.956
			c-1.123,0-1.962-0.855-1.962-1.956C319.474,148.431,320.314,147.568,321.437,147.568z M321.437,151.127L321.437,151.127
			c0.877,0,1.552-0.749,1.552-1.59c0-0.846-0.664-1.602-1.552-1.602c-0.882,0-1.557,0.756-1.557,1.602
			C319.88,150.378,320.554,151.127,321.437,151.127z M320.46,150.57L320.46,150.57v-0.097c0.241-0.034,0.285-0.026,0.285-0.176
			v-1.452c0-0.204-0.022-0.274-0.276-0.264v-0.099h1.004c0.346,0,0.663,0.164,0.663,0.521c0,0.292-0.194,0.508-0.464,0.592
			l0.322,0.449c0.151,0.204,0.32,0.395,0.433,0.462v0.063h-0.382c-0.183,0-0.344-0.386-0.706-0.904h-0.217v0.652
			c0,0.129,0.045,0.121,0.287,0.155v0.097L320.46,150.57L320.46,150.57z M321.121,149.537L321.121,149.537h0.231
			c0.253,0,0.372-0.192,0.372-0.501c0-0.313-0.183-0.423-0.385-0.423h-0.218V149.537z"/>
		<path fill="#0079BE" d="M120.278,171.633c17.795,0.085,34.038-14.513,34.038-32.272c0-19.42-16.243-32.844-34.038-32.838h-15.315
			c-18.008-0.006-32.831,13.421-32.831,32.838c0,17.763,14.823,32.357,32.831,32.272H120.278z"/>
		<path fill="#FFFFFF" d="M105.035,109.214c-16.456,0.005-29.79,13.344-29.794,29.806c0.004,16.459,13.338,29.797,29.794,29.802
			c16.46-0.005,29.797-13.342,29.799-29.802C134.832,122.557,121.495,109.219,105.035,109.214z M86.149,139.02L86.149,139.02
			c0.016-8.044,5.04-14.904,12.124-17.63v35.256C91.189,153.921,86.165,147.065,86.149,139.02z M111.794,156.653L111.794,156.653
			v-35.265c7.087,2.719,12.119,9.583,12.132,17.631C123.913,147.07,118.881,153.929,111.794,156.653z"/>
		<path fill="#211E1F" d="M164.751,120.531c0-3.08-1.606-2.877-3.146-2.911v-0.89c1.334,0.066,2.703,0.066,4.04,0.066
			c1.438,0,3.39-0.066,5.924-0.066c8.865,0,13.692,5.922,13.692,11.986c0,3.391-1.984,11.916-14.104,11.916
			c-1.745,0-3.356-0.067-4.965-0.067c-1.54,0-3.048,0.034-4.588,0.067v-0.889c2.053-0.207,3.048-0.275,3.146-2.604L164.751,120.531
			L164.751,120.531z M168.108,136.592L168.108,136.592c0,2.637,1.885,2.944,3.562,2.944c7.397,0,9.826-5.582,9.826-10.685
			c0-6.401-4.109-11.023-10.716-11.023c-1.406,0-2.051,0.101-2.672,0.137L168.108,136.592L168.108,136.592z"/>
		<path fill="#211E1F" d="M186.464,139.743h0.649c0.957,0,1.643,0,1.643-1.133v-9.278c0-1.505-0.513-1.714-1.78-2.395v-0.549
			c1.608-0.483,3.528-1.129,3.662-1.232c0.242-0.137,0.446-0.173,0.618-0.173c0.169,0,0.24,0.207,0.24,0.482v13.146
			c0,1.133,0.753,1.133,1.712,1.133h0.581v0.89c-1.165,0-2.364-0.068-3.594-0.068c-1.232,0-2.466,0.034-3.731,0.068L186.464,139.743
			L186.464,139.743z M190.126,119.71L190.126,119.71c-0.891,0-1.677-0.821-1.677-1.712c0-0.858,0.822-1.647,1.677-1.647
			c0.887,0,1.678,0.722,1.678,1.647C191.804,118.923,191.048,119.71,190.126,119.71z"/>
		<path fill="#211E1F" d="M197.041,129.536c0-1.266-0.379-1.607-1.984-2.258v-0.65c1.471-0.479,2.873-0.925,4.517-1.646
			c0.102,0,0.203,0.07,0.203,0.342v2.227c1.955-1.403,3.633-2.57,5.93-2.57c2.907,0,3.934,2.124,3.934,4.794v8.834
			c0,1.133,0.753,1.133,1.713,1.133h0.616v0.89c-1.202,0-2.399-0.068-3.629-0.068c-1.234,0-2.468,0.034-3.699,0.068v-0.89h0.615
			c0.961,0,1.642,0,1.642-1.133v-8.866c0-1.955-1.192-2.912-3.147-2.912c-1.094,0-2.841,0.89-3.975,1.645v10.133
			c0,1.133,0.757,1.133,1.717,1.133h0.615v0.89c-1.198,0-2.398-0.068-3.63-0.068c-1.231,0-2.466,0.034-3.697,0.068v-0.89h0.618
			c0.959,0,1.642,0,1.642-1.133L197.041,129.536L197.041,129.536z"/>
		<path fill="#211E1F" d="M214.573,131.182c-0.071,0.309-0.071,0.822,0,1.987c0.202,3.252,2.296,5.922,5.03,5.922
			c1.885,0,3.36-1.027,4.625-2.293l0.478,0.481c-1.576,2.088-3.527,3.868-6.333,3.868c-5.445,0-6.541-5.275-6.541-7.464
			c0-6.713,4.519-8.699,6.914-8.699c2.775,0,5.755,1.745,5.788,5.375c0,0.208,0,0.411-0.032,0.619l-0.31,0.205H214.573
			L214.573,131.182z M220.634,130.085L220.634,130.085c0.854,0,0.955-0.446,0.955-0.855c0-1.747-1.061-3.151-2.979-3.151
			c-2.086,0-3.524,1.539-3.935,4.006H220.634L220.634,130.085z"/>
		<path fill="#211E1F" d="M225.322,139.743h0.925c0.956,0,1.641,0,1.641-1.133v-9.62c0-1.061-1.265-1.267-1.78-1.541v-0.512
			c2.5-1.063,3.87-1.955,4.182-1.955c0.203,0,0.304,0.103,0.304,0.447v3.081h0.072c0.854-1.334,2.294-3.528,4.381-3.528
			c0.856,0,1.951,0.581,1.951,1.815c0,0.925-0.649,1.749-1.607,1.749c-1.066,0-1.066-0.824-2.262-0.824
			c-0.583,0-2.498,0.788-2.498,2.843v8.044c0,1.133,0.683,1.133,1.643,1.133h1.916v0.89c-1.884-0.035-3.316-0.068-4.791-0.068
			c-1.403,0-2.842,0.034-4.074,0.068L225.322,139.743L225.322,139.743z"/>
		<path fill="#211E1F" d="M238.504,135.871c0.446,2.261,1.814,4.179,4.315,4.179c2.015,0,2.77-1.232,2.77-2.431
			c0-4.041-7.462-2.74-7.462-8.252c0-1.918,1.542-4.385,5.307-4.385c1.094,0,2.566,0.31,3.9,0.996l0.243,3.489h-0.789
			c-0.341-2.155-1.539-3.389-3.732-3.389c-1.369,0-2.669,0.788-2.669,2.259c0,4.01,7.942,2.774,7.942,8.149
			c0,2.259-1.815,4.658-5.89,4.658c-1.369,0-2.978-0.479-4.175-1.163l-0.377-3.939L238.504,135.871L238.504,135.871z"/>
		<path fill="#211E1F" d="M279.245,122.928h-0.854c-0.651-4.005-3.493-5.616-7.326-5.616c-3.94,0-9.658,2.635-9.658,10.853
			c0,6.922,4.933,11.885,10.204,11.885c3.388,0,6.198-2.328,6.883-5.924l0.785,0.204l-0.785,4.999
			c-1.438,0.893-5.307,1.816-7.569,1.816c-8.01,0-13.075-5.171-13.075-12.876c0-7.02,6.264-12.056,12.974-12.056
			c2.772,0,5.443,0.894,8.079,1.819L279.245,122.928L279.245,122.928z"/>
		<path fill="#211E1F" d="M280.48,139.743h0.649c0.96,0,1.647,0,1.647-1.133v-19.07c0-2.227-0.514-2.296-1.816-2.672v-0.548
			c1.369-0.444,2.807-1.062,3.527-1.474c0.373-0.204,0.65-0.377,0.75-0.377c0.209,0,0.278,0.207,0.278,0.482v23.659
			c0,1.133,0.752,1.133,1.712,1.133h0.578v0.89c-1.159,0-2.358-0.068-3.591-0.068c-1.231,0-2.464,0.034-3.732,0.068L280.48,139.743
			L280.48,139.743z"/>
		<path fill="#211E1F" d="M302.463,138.747c0,0.619,0.375,0.652,0.956,0.652c0.412,0,0.924-0.034,1.371-0.034v0.721
			c-1.474,0.136-4.281,0.855-4.932,1.059l-0.172-0.103v-2.771c-2.051,1.677-3.629,2.874-6.061,2.874
			c-1.849,0-3.766-1.198-3.766-4.072v-8.769c0-0.89-0.136-1.747-2.05-1.917v-0.651c1.234-0.034,3.967-0.239,4.414-0.239
			c0.38,0,0.38,0.239,0.38,0.992v8.832c0,1.03,0,3.974,2.976,3.974c1.164,0,2.704-0.89,4.141-2.085v-9.216
			c0-0.682-1.642-1.058-2.872-1.402v-0.616c3.077-0.207,4.998-0.479,5.338-0.479c0.277,0,0.277,0.239,0.277,0.618L302.463,138.747
			L302.463,138.747z"/>
		<path fill="#211E1F" d="M309.275,127.449c1.368-1.164,3.216-2.466,5.101-2.466c3.972,0,6.366,3.462,6.366,7.192
			c0,4.485-3.285,8.972-8.184,8.972c-2.532,0-3.867-0.823-4.758-1.198l-1.026,0.785l-0.717-0.375
			c0.304-2.02,0.478-4.007,0.478-6.095V119.54c0-2.227-0.517-2.296-1.816-2.672v-0.548c1.373-0.444,2.807-1.062,3.527-1.474
			c0.377-0.204,0.65-0.377,0.756-0.377c0.204,0,0.272,0.207,0.272,0.482L309.275,127.449L309.275,127.449L309.275,127.449z
			 M309.275,136.762L309.275,136.762c0,1.302,1.231,3.496,3.525,3.496c3.664,0,5.203-3.598,5.203-6.646
			c0-3.697-2.805-6.778-5.476-6.778c-1.27,0-2.329,0.823-3.253,1.612L309.275,136.762L309.275,136.762z"/>
		<path fill="#211E1F" d="M161.567,160.542h0.262c0.669,0,1.377-0.09,1.377-1.061v-9.761c0-0.972-0.708-1.063-1.377-1.063h-0.262
			v-0.559c0.727,0,1.845,0.074,2.761,0.074c0.93,0,2.046-0.074,2.922-0.074v0.559h-0.262c-0.668,0-1.377,0.092-1.377,1.063v9.761
			c0,0.97,0.709,1.061,1.377,1.061h0.262v0.562c-0.894,0-2.014-0.074-2.943-0.074c-0.913,0-2.013,0.074-2.74,0.074L161.567,160.542
			L161.567,160.542z"/>
		<path fill="#211E1F" d="M167.25,161.183c-0.9,0-2.016-0.075-2.944-0.075c-0.911,0-2.006,0.075-2.739,0.075h-0.08v-0.08v-0.559
			v-0.081h0.08h0.261c0.676-0.016,1.291-0.07,1.297-0.981v-9.761c-0.006-0.911-0.621-0.972-1.297-0.984h-0.341v-0.079v-0.642h0.08
			c0.733,0,1.849,0.074,2.759,0.074c0.928,0,2.043-0.074,2.923-0.074h0.083v0.085v0.636h-0.083h-0.261
			c-0.676,0.013-1.295,0.074-1.298,0.984v9.761c0.004,0.911,0.623,0.965,1.298,0.981h0.344v0.081v0.639H167.25L167.25,161.183z
			 M167.17,161.024L167.17,161.024v-0.398h-0.181c-0.665,0-1.457-0.115-1.461-1.144v-9.761c0.004-1.03,0.796-1.146,1.461-1.146
			h0.181v-0.395c-0.86,0-1.939,0.072-2.843,0.072c-0.885,0-1.956-0.067-2.677-0.072v0.395h0.178c0.664,0,1.458,0.116,1.458,1.146
			v9.761c0,1.03-0.794,1.144-1.458,1.144h-0.178v0.398c0.721-0.008,1.774-0.075,2.656-0.075
			C165.213,160.949,166.291,161.019,167.17,161.024L167.17,161.024z"/>
		<path fill="#211E1F" d="M180.048,157.431l0.037-0.036v-6.986c0-1.53-1.063-1.752-1.621-1.752h-0.411v-0.559
			c0.877,0,1.734,0.074,2.608,0.074c0.763,0,1.531-0.074,2.293-0.074v0.559h-0.279c-0.784,0-1.66,0.148-1.66,2.365v8.48
			c0,0.651,0.019,1.302,0.111,1.88h-0.709l-9.592-10.695v7.678c0,1.621,0.314,2.178,1.75,2.178h0.315v0.562
			c-0.8,0-1.599-0.074-2.402-0.074c-0.836,0-1.693,0.074-2.533,0.074v-0.562h0.261c1.285,0,1.676-0.873,1.676-2.363v-7.848
			c0-1.043-0.859-1.674-1.694-1.674h-0.243v-0.559c0.708,0,1.434,0.074,2.141,0.074c0.559,0,1.101-0.074,1.659-0.074
			L180.048,157.431L180.048,157.431z"/>
		<path fill="#211E1F" d="M181.126,161.463l-0.769-0.029l-9.454-10.538v7.467c0.022,1.62,0.269,2.08,1.672,2.098h0.399v0.08v0.641
			h-0.083c-0.806,0-1.608-0.075-2.403-0.075c-0.835,0-1.69,0.075-2.535,0.075h-0.081v-0.08v-0.641h0.081h0.262
			c1.231-0.006,1.583-0.797,1.597-2.283v-7.847c-0.003-0.992-0.816-1.594-1.615-1.597h-0.326v-0.083v-0.636h0.081
			c0.712,0,1.442,0.071,2.141,0.071c0.554,0,1.094-0.071,1.722-0.044l8.188,9.218v-6.852c-0.01-1.483-0.998-1.661-1.541-1.674
			h-0.493v-0.083v-0.636h0.083c0.88,0,1.738,0.071,2.608,0.071c0.758,0,1.522-0.071,2.292-0.071h0.081v0.08v0.638h-0.081h-0.278
			c-0.769,0.022-1.558,0.089-1.58,2.287v8.478c0,0.651,0.019,1.302,0.11,1.867l0.018,0.096L181.126,161.463L181.126,161.463z
			 M180.419,161.299L180.419,161.299h0.616c-0.084-0.559-0.098-1.179-0.098-1.798v-8.478c0-2.236,0.937-2.448,1.739-2.448h0.196
			v-0.395c-0.734,0.005-1.47,0.072-2.21,0.072c-0.853,0-1.682-0.067-2.526-0.072l-0.001,0.395h0.329
			c0.572,0,1.703,0.256,1.703,1.836l-0.026,7.04l-0.037,0.039l-0.063,0.058l-8.285-9.369c-0.553,0-1.093,0.072-1.66,0.072
			c-0.683,0-1.382-0.067-2.058-0.072l-0.004,0.395h0.165c0.875,0,1.772,0.668,1.772,1.758v7.847c0,1.489-0.415,2.443-1.754,2.448
			l-0.18-0.005v0.402c0.807-0.008,1.637-0.075,2.452-0.075c0.778,0,1.552,0.067,2.321,0.075v-0.397h-0.235
			c-1.466-0.005-1.831-0.643-1.832-2.263v-7.887L180.419,161.299L180.419,161.299z M180.048,157.43L180.048,157.43l0.059-0.054
			L180.048,157.43z M180.005,157.394L180.005,157.394v-0.006l-0.016-0.013L180.005,157.394z"/>
		<path fill="#211E1F" d="M185.744,149.028c-1.399,0-1.452,0.336-1.731,1.695h-0.559c0.074-0.521,0.167-1.041,0.223-1.584
			c0.075-0.522,0.111-1.041,0.111-1.581h0.448c0.15,0.559,0.615,0.54,1.12,0.54h9.61c0.504,0,0.969-0.018,1.008-0.579l0.444,0.075
			c-0.072,0.504-0.147,1.006-0.204,1.51c-0.034,0.503-0.034,1.006-0.034,1.508l-0.561,0.208c-0.039-0.689-0.132-1.792-1.378-1.792
			h-3.055v9.914c0,1.437,0.653,1.601,1.544,1.601h0.355v0.562c-0.726,0-2.032-0.074-3.036-0.074c-1.117,0-2.424,0.074-3.151,0.074
			v-0.562h0.355c1.027,0,1.546-0.092,1.546-1.562v-9.952H185.744L185.744,149.028z"/>
		<path fill="#211E1F" d="M193.088,161.183c-0.734,0-2.037-0.075-3.039-0.075c-1.116,0-2.42,0.075-3.151,0.075h-0.077v-0.079v-0.642
			h0.077h0.355c1.027-0.025,1.44-0.037,1.464-1.482v-9.871h-2.974v-0.082v-0.083h3.135v10.035c0,1.495-0.602,1.646-1.625,1.647
			h-0.274v0.393c0.735-0.004,1.988-0.071,3.069-0.071c0.972,0,2.217,0.067,2.953,0.071v-0.393h-0.273
			c-0.9-0.001-1.625-0.222-1.625-1.686v-9.996h3.137c1.251,0.005,1.413,1.068,1.455,1.76l0.402-0.149
			c0-0.486,0.003-0.973,0.036-1.464c0.054-0.479,0.123-0.955,0.192-1.43l-0.284-0.048c-0.086,0.543-0.61,0.57-1.079,0.565h-9.608
			h-0.097c-0.438,0-0.917-0.021-1.084-0.541h-0.307c-0.003,0.515-0.039,1.015-0.11,1.511c-0.054,0.512-0.14,1.004-0.209,1.496h0.399
			c0.245-1.298,0.406-1.72,1.796-1.7v0.083v0.081c-1.377,0.025-1.349,0.257-1.652,1.634l-0.014,0.063h-0.065h-0.652l0.01-0.097
			c0.075-0.522,0.169-1.041,0.225-1.584c0.077-0.517,0.114-1.033,0.114-1.568v-0.081h0.079h0.512l0.013,0.058
			c0.128,0.47,0.473,0.473,0.947,0.481h0.097h9.608c0.519-0.008,0.897-0.015,0.929-0.503l0.008-0.088l0.084,0.018l0.526,0.083
			l-0.012,0.081c-0.075,0.499-0.148,1.002-0.203,1.502c-0.037,0.496-0.037,1-0.037,1.502v0.058l-0.052,0.021l-0.66,0.24
			l-0.005-0.109c-0.049-0.7-0.123-1.713-1.3-1.713h-2.974v9.832c0.017,1.406,0.575,1.502,1.462,1.521h0.437v0.08v0.641
			L193.088,161.183L193.088,161.183z"/>
		<path fill="#211E1F" d="M197.014,160.542h0.262c0.669,0,1.378-0.09,1.378-1.061v-9.761c0-0.972-0.709-1.063-1.378-1.063h-0.262
			v-0.559c1.134,0,3.075,0.074,4.636,0.074c1.568,0,3.502-0.074,4.768-0.074c-0.031,0.8-0.014,2.032,0.041,2.85l-0.562,0.15
			c-0.089-1.21-0.313-2.178-2.27-2.178h-2.587v4.879h2.214c1.117,0,1.361-0.632,1.471-1.641h0.558
			c-0.036,0.73-0.056,1.456-0.056,2.182c0,0.709,0.019,1.416,0.056,2.124l-0.558,0.111c-0.11-1.117-0.167-1.843-1.453-1.843h-2.232
			v4.339c0,1.213,1.076,1.213,2.27,1.213c2.236,0,3.222-0.151,3.781-2.272l0.522,0.128c-0.244,0.99-0.466,1.975-0.632,2.965
			c-1.194,0-3.337-0.074-5.011-0.074c-1.679,0-3.895,0.074-4.957,0.074V160.542L197.014,160.542z"/>
		<path fill="#211E1F" d="M206.98,161.183c-1.196,0-3.338-0.076-5.011-0.076c-1.678,0-3.892,0.076-4.956,0.076h-0.079v-0.079v-0.562
			v-0.08h0.079h0.261c0.676-0.01,1.288-0.07,1.297-0.981v-9.761c-0.009-0.909-0.622-0.97-1.297-0.984h-0.34v-0.079v-0.639h0.079
			c1.137,0,3.075,0.071,4.636,0.071c1.567,0,3.5-0.071,4.768-0.071h0.084l-0.004,0.083c-0.013,0.28-0.018,0.611-0.018,0.962
			c0,0.645,0.018,1.349,0.056,1.88l0.003,0.067l-0.062,0.018l-0.655,0.171l-0.004-0.096c-0.11-1.209-0.271-2.086-2.19-2.104h-2.51
			l-0.003,4.717h2.139c1.072-0.01,1.265-0.559,1.391-1.563l0.007-0.074h0.072h0.642l-0.001,0.084
			c-0.036,0.726-0.06,1.452-0.06,2.178c0,0.705,0.024,1.412,0.06,2.121l0.001,0.066l-0.067,0.015l-0.647,0.129l-0.007-0.088
			c-0.128-1.137-0.137-1.76-1.375-1.774l-2.154-0.001v4.262c0.002,1.132,0.978,1.125,2.192,1.132
			c2.243-0.013,3.142-0.121,3.704-2.214l0.018-0.075l0.079,0.014l0.597,0.154l-0.018,0.078c-0.24,0.987-0.464,1.971-0.631,2.958
			l-0.015,0.066H206.98L206.98,161.183z M206.912,161.02L206.912,161.02c0.161-0.939,0.374-1.882,0.603-2.82l-0.368-0.093
			c-0.558,2.085-1.638,2.271-3.837,2.257c-1.173,0-2.349,0-2.354-1.293v-4.421h2.315c1.301-0.014,1.434,0.771,1.526,1.832
			l0.403-0.084c-0.036-0.686-0.053-1.375-0.053-2.058c0-0.701,0.017-1.399,0.053-2.101h-0.403c-0.103,0.97-0.407,1.652-1.542,1.639
			h-2.298v-5.043h2.672c1.938-0.013,2.259,0.987,2.342,2.159l0.402-0.109c-0.032-0.526-0.055-1.2-0.055-1.823
			c0-0.319,0.008-0.62,0.018-0.884c-1.266,0.005-3.152,0.072-4.686,0.072c-1.531,0-3.416-0.067-4.556-0.072v0.395h0.181
			c0.664,0,1.457,0.116,1.46,1.146v9.761c-0.003,1.027-0.796,1.141-1.46,1.146h-0.181v0.393c1.087-0.001,3.239-0.071,4.875-0.071
			C203.612,160.949,205.71,161.019,206.912,161.02L206.912,161.02z"/>
		<path fill="#211E1F" d="M210.128,150.071c0-1.359-0.744-1.415-1.324-1.415h-0.335v-0.561c0.597,0,1.75,0.075,2.887,0.075
			c1.117,0,2.013-0.075,2.999-0.075c2.346,0,4.435,0.634,4.435,3.283c0,1.673-1.117,2.699-2.589,3.279l3.184,4.767
			c0.522,0.788,0.893,1.009,1.807,1.117v0.562c-0.615,0-1.212-0.074-1.826-0.074c-0.577,0-1.176,0.074-1.751,0.074
			c-1.434-1.882-2.666-3.895-3.877-6.039h-1.226v3.989c0,1.437,0.668,1.488,1.524,1.488h0.336v0.562
			c-1.064,0-2.14-0.074-3.204-0.074c-0.895,0-1.771,0.074-2.701,0.074v-0.562h0.335c0.692,0,1.324-0.313,1.324-1.004
			L210.128,150.071L210.128,150.071z M212.514,154.394L212.514,154.394h0.91c1.864,0,2.868-0.708,2.868-2.907
			c0-1.656-1.06-2.719-2.721-2.719c-0.559,0-0.797,0.058-1.057,0.075L212.514,154.394L212.514,154.394z"/>
		<path fill="#211E1F" d="M221.193,161.183c-0.624,0-1.217-0.075-1.829-0.075c-0.568,0-1.163,0.075-1.812,0.044
			c-1.429-1.874-2.654-3.876-3.858-6.005h-1.101v3.904c0.019,1.402,0.583,1.39,1.444,1.411h0.417v0.08v0.641h-0.083
			c-1.064,0-2.146-0.075-3.204-0.075c-0.89,0-1.763,0.075-2.699,0.075h-0.082v-0.08v-0.641h0.082h0.335
			c0.672-0.004,1.238-0.296,1.24-0.924v-9.467c-0.014-1.323-0.661-1.315-1.24-1.334h-0.416v-0.08v-0.642h0.082
			c0.603,0,1.753,0.074,2.887,0.074c1.112,0,2.008-0.074,3-0.074c2.347,0.005,4.51,0.654,4.516,3.359c0,1.683-1.112,2.733-2.55,3.32
			l3.13,4.687c0.521,0.773,0.845,0.965,1.752,1.081l0.068,0.01v0.07v0.641L221.193,161.183L221.193,161.183z M212.511,154.984
			L212.511,154.984h1.274l0.022,0.041c1.214,2.141,2.438,4.151,3.81,5.998c0.568,0,1.166-0.076,1.747-0.076
			c0.595,0,1.169,0.065,1.749,0.074v-0.408c-0.875-0.109-1.284-0.369-1.793-1.143l-3.241-4.851l0.092-0.037
			c1.457-0.573,2.536-1.569,2.537-3.208c-0.001-2.585-2.009-3.184-4.351-3.195c-0.983,0-1.877,0.074-3,0.074
			c-1.094,0-2.199-0.068-2.808-0.074v0.395h0.256c0.579,0.001,1.403,0.097,1.403,1.497v9.467c0,0.748-0.701,1.089-1.403,1.09h-0.256
			v0.393c0.897-0.003,1.745-0.074,2.62-0.074c1.042,0,2.093,0.071,3.124,0.074v-0.393h-0.255c-0.85-0.001-1.607-0.107-1.607-1.577
			v-4.067H212.511L212.511,154.984z M212.511,154.473L212.511,154.473h-0.082v-5.705l0.071-0.006
			c0.255-0.019,0.507-0.072,1.07-0.072c1.698,0,2.801,1.103,2.803,2.802c-0.005,2.225-1.072,2.98-2.951,2.982L212.511,154.473
			L212.511,154.473z M213.423,154.313L213.423,154.313c1.845-0.016,2.772-0.656,2.792-2.822c-0.01-1.628-1.022-2.638-2.645-2.644
			c-0.504,0-0.74,0.046-0.978,0.067v5.399H213.423L213.423,154.313z"/>
		<path fill="#211E1F" d="M233.841,157.431l0.034-0.036v-6.986c0-1.53-1.06-1.752-1.619-1.752h-0.408v-0.559
			c0.875,0,1.73,0.074,2.607,0.074c0.765,0,1.526-0.074,2.294-0.074v0.559h-0.28c-0.783,0-1.659,0.148-1.659,2.365v8.48
			c0,0.651,0.018,1.302,0.11,1.88h-0.707l-9.593-10.695v7.678c0,1.621,0.316,2.178,1.75,2.178h0.317v0.562
			c-0.8,0-1.602-0.074-2.402-0.074c-0.841,0-1.698,0.074-2.535,0.074v-0.562h0.258c1.287,0,1.678-0.873,1.678-2.363v-7.848
			c0-1.043-0.857-1.674-1.693-1.674h-0.243v-0.559c0.705,0,1.435,0.074,2.142,0.074c0.556,0,1.098-0.074,1.657-0.074
			L233.841,157.431L233.841,157.431z"/>
		<path fill="#211E1F" d="M234.921,161.462l-0.767-0.026l-9.455-10.539v7.466c0.022,1.621,0.267,2.081,1.673,2.099h0.394v0.08v0.641
			h-0.082c-0.806,0-1.604-0.076-2.403-0.076c-0.832,0-1.692,0.076-2.531,0.076h-0.084v-0.079v-0.642h0.084h0.258
			c1.23-0.005,1.583-0.797,1.594-2.288v-7.843c-0.001-0.992-0.814-1.594-1.61-1.596h-0.327v-0.079v-0.642h0.084
			c0.711,0,1.439,0.074,2.142,0.074c0.548,0,1.088-0.074,1.713-0.048l8.189,9.221v-6.855c-0.005-1.48-0.997-1.664-1.539-1.672
			h-0.492v-0.079v-0.642h0.082c0.881,0,1.739,0.074,2.609,0.074c0.76,0,1.523-0.074,2.29-0.074h0.081v0.084v0.637h-0.081h-0.277
			c-0.769,0.021-1.561,0.089-1.58,2.287v8.478c0,0.651,0.017,1.297,0.111,1.871l0.01,0.09H234.921L234.921,161.462z
			 M234.213,161.299L234.213,161.299h0.612c-0.082-0.559-0.1-1.179-0.1-1.798v-8.478c0.001-2.236,0.944-2.443,1.743-2.449h0.195
			v-0.394c-0.731,0.005-1.469,0.072-2.209,0.072c-0.855,0-1.686-0.067-2.529-0.072v0.394h0.331c0.573,0.006,1.703,0.257,1.703,1.834
			l-0.026,7.043l-0.036,0.039l-0.057,0.059l-8.291-9.37c-0.553,0-1.093,0.072-1.656,0.072c-0.69,0-1.386-0.067-2.064-0.072v0.394
			h0.165c0.875,0.006,1.773,0.667,1.773,1.758v7.843c0,1.496-0.421,2.448-1.757,2.453l-0.181-0.001v0.394
			c0.805-0.004,1.635-0.071,2.453-0.071c0.782,0,1.556,0.067,2.325,0.071v-0.393h-0.235c-1.467-0.001-1.834-0.643-1.837-2.265
			v-7.883L234.213,161.299L234.213,161.299z M233.841,157.43L233.841,157.43l0.057-0.053L233.841,157.43z M233.794,157.395
			L233.794,157.395v-0.007l-0.014-0.014L233.794,157.395z"/>
		<path fill="#211E1F" d="M239.745,158.439c-0.188,0.632-0.413,1.12-0.413,1.452c0,0.561,0.784,0.651,1.397,0.651h0.208v0.562
			c-0.747-0.04-1.508-0.074-2.258-0.074c-0.67,0-1.337,0.034-2.009,0.074v-0.562h0.112c0.726,0,1.342-0.428,1.617-1.212l2.984-8.55
			c0.24-0.69,0.579-1.621,0.691-2.312c0.593-0.203,1.34-0.575,1.692-0.8c0.058-0.019,0.09-0.039,0.149-0.039
			c0.056,0,0.092,0,0.133,0.058c0.054,0.147,0.109,0.317,0.168,0.465l3.427,9.746c0.223,0.651,0.444,1.34,0.686,1.9
			c0.225,0.522,0.617,0.743,1.234,0.743h0.11v0.562c-0.838-0.04-1.678-0.074-2.569-0.074c-0.913,0-1.847,0.034-2.797,0.074v-0.562
			h0.207c0.426,0,1.155-0.072,1.155-0.539c0-0.242-0.168-0.744-0.376-1.342l-0.725-2.161h-4.228L239.745,158.439L239.745,158.439z
			 M242.463,150.184L242.463,150.184h-0.038l-1.732,5.273h3.482L242.463,150.184z"/>
		<path fill="#211E1F" d="M249.668,161.183c-0.838-0.037-1.677-0.076-2.564-0.076c-0.913,0-1.841,0.039-2.794,0.076l-0.084,0.005
			v-0.084v-0.645h0.082h0.205c0.431,0,1.072-0.098,1.072-0.456c0.005-0.212-0.163-0.724-0.368-1.316l-0.709-2.107h-4.109
			l-0.579,1.882c-0.189,0.636-0.412,1.128-0.411,1.431c0.006,0.455,0.703,0.566,1.32,0.566h0.287v0.084v0.645l-0.084-0.005
			c-0.745-0.037-1.506-0.076-2.249-0.076c-0.668,0-1.34,0.039-2.007,0.076l-0.087,0.005v-0.084v-0.645h0.081h0.111
			c0.694-0.003,1.272-0.396,1.541-1.155l2.983-8.551c0.244-0.691,0.58-1.62,0.742-2.363c0.584-0.198,1.332-0.572,1.691-0.8
			c0.052-0.017,0.103-0.043,0.18-0.043c0.045-0.001,0.146,0.01,0.205,0.109c0.053,0.154,0.111,0.319,0.168,0.47l3.431,9.745
			c0.22,0.654,0.442,1.342,0.685,1.892c0.216,0.497,0.558,0.692,1.157,0.695h0.19v0.084v0.645L249.668,161.183L249.668,161.183z
			 M244.388,161.016L244.388,161.016c0.923-0.032,1.826-0.068,2.716-0.068c0.865,0,1.675,0.036,2.485,0.068v-0.389h-0.026
			c-0.638,0.004-1.079-0.247-1.307-0.796c-0.243-0.566-0.47-1.257-0.688-1.909l-3.43-9.743c-0.057-0.149-0.111-0.318-0.16-0.45
			c-0.015-0.018-0.012-0.018-0.027-0.018h-0.034c-0.039,0-0.061,0.012-0.109,0.025c-0.359,0.234-1.107,0.599-1.659,0.745
			c-0.115,0.705-0.449,1.635-0.692,2.325l-2.982,8.552c-0.284,0.809-0.937,1.27-1.695,1.268h-0.03v0.389
			c0.638-0.032,1.284-0.068,1.931-0.068c0.72,0,1.456,0.036,2.166,0.068v-0.389h-0.12c-0.606-0.008-1.453-0.076-1.477-0.734
			c0.001-0.372,0.23-0.849,0.412-1.478l0.082,0.024l-0.082-0.027l0.614-1.992h4.343l0.748,2.214
			c0.209,0.598,0.379,1.094,0.379,1.368c-0.026,0.572-0.812,0.612-1.235,0.624h-0.124L244.388,161.016L244.388,161.016z
			 M240.579,155.537L240.579,155.537l1.784-5.435h0.062h0.039v0.081l-0.021,0.004l0.021-0.004v-0.081h0.056l1.768,5.435H240.579z
			 M240.803,155.376L240.803,155.376h3.261l-1.621-4.993L240.803,155.376z M242.383,150.207L242.383,150.207l0.043-0.014
			L242.383,150.207z"/>
		<path fill="#211E1F" d="M250.492,149.028c-1.398,0-1.453,0.336-1.734,1.695h-0.559c0.074-0.521,0.168-1.041,0.226-1.584
			c0.075-0.522,0.109-1.041,0.109-1.581h0.449c0.149,0.559,0.616,0.54,1.116,0.54h9.615c0.5,0,0.965-0.018,1.004-0.579l0.446,0.075
			c-0.071,0.504-0.145,1.006-0.202,1.51c-0.04,0.503-0.04,1.006-0.04,1.508l-0.558,0.208c-0.035-0.689-0.128-1.792-1.377-1.792
			h-3.055v9.914c0,1.437,0.654,1.601,1.545,1.601h0.354v0.562c-0.726,0-2.028-0.074-3.036-0.074c-1.116,0-2.422,0.074-3.148,0.074
			v-0.562H252c1.027,0,1.549-0.092,1.549-1.562v-9.952H250.492L250.492,149.028z"/>
		<path fill="#211E1F" d="M257.831,161.183c-0.731,0-2.036-0.075-3.036-0.075c-1.114,0-2.418,0.075-3.148,0.075h-0.083v-0.079
			v-0.642h0.083h0.353c1.027-0.025,1.439-0.037,1.465-1.482l-0.003-9.871h-2.97v-0.082v-0.083h3.134v10.035
			c0,1.495-0.603,1.642-1.626,1.646h-0.274v0.398c0.738-0.008,1.988-0.075,3.069-0.075c0.973,0,2.218,0.067,2.954,0.075v-0.398
			h-0.275c-0.896-0.004-1.621-0.22-1.624-1.685v-9.996h3.137c1.251,0.005,1.414,1.068,1.45,1.76l0.407-0.149
			c0-0.486,0.001-0.973,0.037-1.461c0.052-0.479,0.121-0.957,0.19-1.433l-0.282-0.048c-0.085,0.543-0.611,0.572-1.075,0.565h-9.616
			h-0.094c-0.439,0.005-0.915-0.021-1.084-0.544h-0.305c-0.005,0.517-0.04,1.018-0.114,1.514c-0.049,0.513-0.141,1.006-0.21,1.496
			h0.399c0.247-1.298,0.408-1.72,1.801-1.7v0.083v0.081c-1.381,0.023-1.35,0.257-1.655,1.634l-0.014,0.063h-0.065h-0.654
			l0.012-0.093c0.077-0.526,0.171-1.045,0.225-1.584c0.076-0.521,0.113-1.037,0.113-1.572v-0.081h0.08h0.509l0.016,0.058
			c0.13,0.47,0.47,0.473,0.947,0.481l0.094,0.003h9.616c0.514-0.01,0.89-0.018,0.922-0.504l0.005-0.089l0.088,0.018l0.528,0.083
			l-0.014,0.081c-0.076,0.499-0.147,1.002-0.204,1.502c-0.038,0.496-0.038,1.001-0.038,1.502v0.058l-0.053,0.021l-0.66,0.24
			l-0.004-0.109c-0.048-0.7-0.122-1.713-1.298-1.713h-2.975v9.832c0.019,1.406,0.576,1.502,1.462,1.521h0.437v0.08v0.641
			L257.831,161.183L257.831,161.183z"/>
		<path fill="#211E1F" d="M261.852,160.542h0.261c0.673,0,1.377-0.09,1.377-1.061v-9.761c0-0.972-0.704-1.063-1.377-1.063h-0.261
			v-0.559c0.727,0,1.844,0.074,2.754,0.074c0.935,0,2.053-0.074,2.929-0.074v0.559h-0.261c-0.67,0-1.381,0.092-1.381,1.063v9.761
			c0,0.97,0.711,1.061,1.381,1.061h0.261v0.562c-0.895,0-2.014-0.074-2.943-0.074c-0.915,0-2.013,0.074-2.74,0.074L261.852,160.542
			L261.852,160.542z"/>
		<path fill="#211E1F" d="M267.535,161.183c-0.9,0-2.015-0.076-2.944-0.076c-0.911,0-2.011,0.076-2.739,0.076h-0.081v-0.079v-0.562
			v-0.08h0.081h0.261c0.673-0.01,1.291-0.068,1.293-0.981v-9.761c-0.003-0.909-0.62-0.972-1.293-0.984h-0.342v-0.079v-0.639h0.081
			c0.727,0,1.846,0.071,2.754,0.071c0.929,0,2.046-0.071,2.929-0.071h0.079v0.08v0.638h-0.079h-0.261
			c-0.681,0.013-1.292,0.075-1.301,0.984v9.761c0.009,0.912,0.62,0.97,1.301,0.981h0.34v0.08v0.641H267.535L267.535,161.183z
			 M267.452,161.02L267.452,161.02v-0.394h-0.177c-0.668,0-1.458-0.117-1.458-1.144v-9.761c0-1.03,0.79-1.146,1.458-1.146h0.177
			v-0.395c-0.86,0.005-1.936,0.072-2.845,0.072c-0.882,0-1.951-0.067-2.673-0.072v0.395h0.18c0.663,0,1.456,0.116,1.458,1.146v9.761
			c-0.003,1.027-0.796,1.144-1.458,1.144h-0.18v0.394c0.718-0.008,1.773-0.071,2.657-0.071
			C265.494,160.949,266.573,161.016,267.452,161.02L267.452,161.02z"/>
		<path fill="#211E1F" d="M274.964,147.818c3.971,0,7.136,2.462,7.136,6.43c0,4.287-3.073,7.135-7.039,7.135
			c-3.953,0-6.968-2.683-6.968-6.689C268.093,150.819,271.09,147.818,274.964,147.818L274.964,147.818z M275.246,160.563
			L275.246,160.563c3.615,0,4.244-3.188,4.244-5.905c0-2.723-1.467-6.02-4.561-6.02c-3.261,0-4.228,2.907-4.228,5.401
			C270.7,157.374,272.227,160.563,275.246,160.563L275.246,160.563z"/>
		<path fill="#211E1F" d="M268.009,154.694c0.008-3.919,3.041-6.951,6.954-6.957v0.081v0.079c-3.829,0-6.793,2.962-6.796,6.796
			c0.009,3.961,2.982,6.604,6.893,6.605c3.927-0.001,6.957-2.81,6.963-7.055c-0.004-3.917-3.121-6.342-7.06-6.347v-0.079v-0.081
			c4.002,0.003,7.21,2.489,7.217,6.507c-0.004,4.331-3.117,7.21-7.121,7.217C271.076,161.454,268.017,158.744,268.009,154.694
			L268.009,154.694L268.009,154.694z M270.619,154.039L270.619,154.039c0.005-2.506,0.984-5.485,4.31-5.485
			c3.162,0.008,4.639,3.367,4.644,6.104c-0.005,2.717-0.644,5.983-4.326,5.983v-0.078v-0.08c3.542-0.005,4.156-3.108,4.165-5.825
			c0-2.701-1.455-5.935-4.483-5.939c-3.196,0.004-4.142,2.838-4.148,5.32c0.003,3.319,1.515,6.436,4.466,6.444v0.08v0.078
			C272.154,160.636,270.624,157.394,270.619,154.039L270.619,154.039z"/>
		<path fill="#211E1F" d="M294.655,157.431l0.038-0.036v-6.986c0-1.53-1.064-1.752-1.624-1.752h-0.403v-0.559
			c0.873,0,1.73,0.074,2.603,0.074c0.766,0,1.53-0.074,2.294-0.074v0.559h-0.282c-0.78,0-1.657,0.148-1.657,2.365v8.48
			c0,0.651,0.018,1.302,0.113,1.88h-0.707l-9.596-10.695v7.678c0,1.621,0.315,2.178,1.749,2.178h0.319v0.562
			c-0.802,0-1.602-0.074-2.403-0.074c-0.838,0-1.697,0.074-2.536,0.074v-0.562h0.262c1.288,0,1.674-0.873,1.674-2.363v-7.848
			c0-1.043-0.853-1.674-1.694-1.674h-0.243v-0.559c0.708,0,1.435,0.074,2.142,0.074c0.559,0,1.098-0.074,1.659-0.074
			L294.655,157.431L294.655,157.431z"/>
		<path fill="#211E1F" d="M295.737,161.462l-0.771-0.027l-9.453-10.538v7.467c0.02,1.62,0.267,2.079,1.666,2.095h0.403v0.084v0.639
			h-0.082c-0.807,0-1.607-0.075-2.403-0.075c-0.836,0-1.691,0.075-2.537,0.075h-0.078v-0.08v-0.643h0.078h0.264
			c1.229-0.004,1.581-0.794,1.597-2.28v-7.848c-0.003-0.992-0.815-1.594-1.616-1.595h-0.322v-0.079v-0.639h0.078
			c0.715,0,1.44,0.071,2.143,0.071c0.553,0,1.09-0.071,1.721-0.044l8.185,9.217v-6.852c-0.005-1.483-0.997-1.661-1.543-1.674h-0.49
			v-0.079v-0.639h0.084c0.877,0,1.736,0.071,2.603,0.071c0.765,0,1.525-0.071,2.297-0.071h0.08v0.08v0.638h-0.08h-0.282
			c-0.766,0.022-1.559,0.092-1.575,2.287v8.478c0,0.651,0.014,1.301,0.105,1.87l0.015,0.09L295.737,161.462L295.737,161.462z
			 M295.03,161.299L295.03,161.299h0.61c-0.081-0.559-0.096-1.179-0.096-1.798v-8.478c0-2.24,0.939-2.443,1.738-2.449h0.201v-0.394
			c-0.735,0.005-1.471,0.072-2.217,0.072c-0.848,0-1.681-0.067-2.524-0.072v0.394h0.327c0.578,0.006,1.701,0.261,1.701,1.837
			l-0.02,7.041l-0.035,0.039l-0.059,0.059l-8.291-9.37c-0.549,0-1.093,0.072-1.659,0.072c-0.686,0-1.385-0.067-2.063-0.072v0.394
			h0.164c0.875,0.006,1.775,0.667,1.775,1.758v7.848c0,1.49-0.416,2.443-1.756,2.448l-0.183-0.001v0.394
			c0.809-0.004,1.638-0.071,2.457-0.071c0.776,0,1.548,0.067,2.322,0.071v-0.393h-0.24c-1.462-0.001-1.828-0.643-1.828-2.263v-7.887
			L295.03,161.299L295.03,161.299z M294.655,157.43L294.655,157.43l0.059-0.053L294.655,157.43z M294.611,157.395L294.611,157.395
			v-0.007l-0.016-0.014L294.611,157.395z"/>
		<path fill="#211E1F" d="M300.556,158.439c-0.182,0.632-0.408,1.12-0.408,1.452c0,0.561,0.784,0.651,1.395,0.651h0.208v0.562
			c-0.745-0.04-1.51-0.074-2.255-0.074c-0.673,0-1.341,0.034-2.009,0.074v-0.562h0.106c0.73,0,1.347-0.428,1.623-1.212l2.984-8.55
			c0.24-0.69,0.577-1.621,0.686-2.312c0.597-0.203,1.341-0.575,1.699-0.8c0.053-0.019,0.091-0.039,0.147-0.039
			c0.056,0,0.09,0,0.128,0.058c0.057,0.147,0.115,0.317,0.171,0.465l3.426,9.746c0.223,0.651,0.446,1.34,0.691,1.9
			c0.223,0.522,0.616,0.743,1.229,0.743h0.114v0.562c-0.84-0.04-1.678-0.074-2.573-0.074c-0.911,0-1.843,0.034-2.794,0.074v-0.562
			h0.207c0.425,0,1.156-0.072,1.156-0.539c0-0.242-0.169-0.744-0.377-1.342l-0.723-2.161h-4.23L300.556,158.439L300.556,158.439z
			 M303.28,150.184L303.28,150.184h-0.037l-1.735,5.273h3.486L303.28,150.184z"/>
		<path fill="#211E1F" d="M310.482,161.183c-0.838-0.034-1.675-0.075-2.566-0.075c-0.908,0-1.841,0.041-2.792,0.075l-0.083,0.005
			v-0.085v-0.641h0.08h0.203c0.434,0,1.076-0.101,1.077-0.459c0.004-0.212-0.164-0.72-0.372-1.316l-0.708-2.107h-4.112l-0.576,1.882
			c-0.186,0.638-0.408,1.128-0.404,1.429c0,0.457,0.697,0.571,1.314,0.571h0.284v0.08v0.646l-0.083-0.005
			c-0.746-0.034-1.508-0.075-2.249-0.075c-0.668,0-1.337,0.041-2.009,0.075l-0.082,0.005v-0.085v-0.641h0.082h0.106
			c0.695-0.003,1.276-0.402,1.548-1.158l2.982-8.551c0.238-0.691,0.573-1.62,0.739-2.36c0.585-0.203,1.333-0.575,1.695-0.802
			c0.049-0.017,0.099-0.039,0.176-0.039c0.049-0.005,0.145,0.006,0.204,0.109c0.056,0.146,0.11,0.315,0.172,0.466l3.426,9.745
			c0.222,0.654,0.446,1.342,0.687,1.896c0.218,0.493,0.558,0.689,1.152,0.694h0.194v0.08v0.646L310.482,161.183L310.482,161.183z
			 M305.202,161.019L305.202,161.019c0.921-0.035,1.828-0.071,2.714-0.071c0.867,0,1.679,0.036,2.491,0.068l-0.003-0.389h-0.031
			c-0.631,0.001-1.071-0.247-1.302-0.796c-0.245-0.566-0.468-1.257-0.69-1.907l-3.429-9.746c-0.056-0.149-0.112-0.318-0.158-0.444
			c-0.016-0.023-0.014-0.023-0.029-0.023h-0.035c-0.039,0-0.06,0.013-0.105,0.026c-0.363,0.229-1.11,0.601-1.661,0.744
			c-0.115,0.705-0.453,1.634-0.694,2.325l-2.983,8.552c-0.283,0.809-0.934,1.27-1.696,1.268h-0.027v0.389
			c0.641-0.032,1.282-0.068,1.93-0.068c0.722,0,1.457,0.036,2.174,0.068v-0.389h-0.127c-0.606-0.008-1.456-0.074-1.478-0.736
			c0.004-0.369,0.235-0.844,0.415-1.475l0.076,0.024l-0.076-0.027l0.614-1.992h4.345l0.747,2.214c0.205,0.6,0.375,1.094,0.375,1.368
			c-0.027,0.572-0.809,0.612-1.235,0.624h-0.123L305.202,161.019L305.202,161.019z M301.396,155.536L301.396,155.536l1.787-5.434
			h0.057h0.04v0.081l-0.019,0.004l0.019-0.004v-0.081h0.058l1.761,5.434H301.396z M301.62,155.376L301.62,155.376h3.258l-1.62-4.99
			L301.62,155.376L301.62,155.376z M303.202,150.207L303.202,150.207l0.037-0.014L303.202,150.207z"/>
		<path fill="#211E1F" d="M315.184,159.277c0,0.746,0.517,0.968,1.114,1.044c0.763,0.057,1.602,0.057,2.462-0.037
			c0.78-0.094,1.452-0.541,1.785-1.006c0.297-0.411,0.465-0.933,0.578-1.342h0.54c-0.204,1.062-0.465,2.108-0.69,3.169
			c-1.635,0-3.279-0.074-4.916-0.074c-1.642,0-3.279,0.074-4.918,0.074v-0.562h0.256c0.674,0,1.403-0.09,1.403-1.247v-9.575
			c0-0.972-0.729-1.063-1.403-1.063h-0.256v-0.559c0.984,0,1.954,0.074,2.94,0.074c0.953,0,1.884-0.074,2.834-0.074v0.559h-0.469
			c-0.705,0-1.261,0.021-1.261,1.005V159.277L315.184,159.277z"/>
		<path fill="#211E1F" d="M320.973,161.183c-1.642,0-3.281-0.075-4.915-0.075c-1.641,0-3.28,0.075-4.922,0.075h-0.079v-0.08v-0.641
			h0.079h0.26c0.676-0.016,1.314-0.062,1.322-1.167v-9.579c-0.008-0.906-0.642-0.968-1.322-0.981h-0.339v-0.079v-0.639h0.079
			c0.991,0,1.961,0.071,2.945,0.071c0.946,0,1.876-0.071,2.833-0.071h0.077v0.08v0.638h-0.077h-0.467
			c-0.722,0.021-1.172-0.013-1.186,0.926v9.615c0.005,0.694,0.46,0.881,1.041,0.962c0.329,0.023,0.674,0.037,1.033,0.037
			c0.456,0,0.93-0.022,1.411-0.074c0.759-0.089,1.413-0.527,1.734-0.971c0.287-0.398,0.452-0.909,0.563-1.316l0.017-0.062h0.062
			h0.64l-0.017,0.098c-0.21,1.066-0.466,2.107-0.692,3.168l-0.015,0.063L320.973,161.183L320.973,161.183L320.973,161.183z
			 M320.906,161.02L320.906,161.02c0.216-1.01,0.46-1.999,0.66-3.006h-0.383c-0.116,0.406-0.282,0.906-0.575,1.313
			c-0.348,0.483-1.038,0.938-1.845,1.037c-0.488,0.05-0.971,0.076-1.429,0.076c-0.361,0-0.711-0.017-1.048-0.04
			c-0.606-0.067-1.194-0.326-1.191-1.122v-9.615c0-1.035,0.655-1.088,1.35-1.088h0.385v-0.395c-0.918,0.005-1.823,0.074-2.75,0.074
			c-0.965,0-1.908-0.068-2.864-0.074v0.395h0.178c0.665,0,1.479,0.116,1.479,1.142v9.579c0,1.205-0.81,1.331-1.479,1.331h-0.178
			v0.394c1.611-0.001,3.222-0.071,4.841-0.071S319.294,161.019,320.906,161.02L320.906,161.02z"/>
		<path fill="#211E1F" d="M321.437,147.568c1.122,0,1.961,0.863,1.961,1.969c0,1.101-0.838,1.956-1.961,1.956
			c-1.123,0-1.962-0.855-1.962-1.956C319.474,148.431,320.314,147.568,321.437,147.568z M321.437,151.127L321.437,151.127
			c0.877,0,1.552-0.749,1.552-1.59c0-0.846-0.664-1.602-1.552-1.602c-0.882,0-1.557,0.756-1.557,1.602
			C319.88,150.378,320.554,151.127,321.437,151.127z M320.46,150.57L320.46,150.57v-0.097c0.241-0.034,0.285-0.026,0.285-0.176
			v-1.452c0-0.204-0.022-0.274-0.276-0.264v-0.099h1.004c0.346,0,0.663,0.164,0.663,0.521c0,0.292-0.194,0.508-0.464,0.592
			l0.322,0.449c0.151,0.204,0.32,0.395,0.433,0.462v0.063h-0.382c-0.183,0-0.344-0.386-0.706-0.904h-0.217v0.652
			c0,0.129,0.045,0.121,0.287,0.155v0.097L320.46,150.57L320.46,150.57z M321.121,149.537L321.121,149.537h0.231
			c0.253,0,0.372-0.192,0.372-0.501c0-0.313-0.183-0.423-0.385-0.423h-0.218V149.537z"/>
	</g>
</g>
<g id="PayPal">
	<g transform="translate(936.898 -21.779)">
		<path fill="#003087" d="M-778.682,139.177c-0.559,0-1.034,0.406-1.121,0.958l-6.47,41.029c-0.09,0.573,0.302,1.111,0.875,1.201
			c0.054,0.008,0.108,0.013,0.163,0.013h7.673c0.558,0,1.034-0.407,1.121-0.958l1.901-12.049c0.087-0.552,0.562-0.958,1.121-0.958
			h6.976c8.151,0,15.069-5.947,16.333-14.005c1.274-8.126-5.074-15.213-14.073-15.23H-778.682z M-771.224,148.336h5.581
			c4.595,0,6.091,2.711,5.618,5.71c-0.473,3.005-2.797,5.218-7.242,5.218h-5.681L-771.224,148.336z M-734.506,151.125
			c-1.937,0.007-4.167,0.404-6.669,1.447c-5.741,2.393-8.498,7.338-9.669,10.944c0,0-3.726,11,4.693,17.043
			c0,0,7.808,5.818,16.598-0.358l-0.152,0.965c-0.09,0.573,0.302,1.111,0.875,1.201c0.053,0.008,0.107,0.013,0.161,0.013h7.284
			c0.559,0,1.034-0.407,1.121-0.958l4.431-28.097c0.091-0.573-0.3-1.111-0.873-1.202c-0.054-0.009-0.108-0.013-0.163-0.013h-7.284
			c-0.559,0-1.034,0.407-1.121,0.958l-0.238,1.512C-725.513,154.578-728.694,151.104-734.506,151.125L-734.506,151.125z
			 M-734.268,160c0.836,0,1.601,0.115,2.288,0.336c3.143,1.009,4.924,4.028,4.409,7.3c-0.636,4.03-3.941,6.997-8.179,6.997
			c-0.836,0-1.601-0.115-2.288-0.335c-3.142-1.009-4.935-4.028-4.419-7.3C-741.821,162.968-738.506,159.999-734.268,160
			L-734.268,160z"/>
		<path fill="#0070E0" d="M-673.794,139.177c-0.559,0-1.034,0.406-1.121,0.958l-6.47,41.029c-0.09,0.573,0.302,1.111,0.875,1.201
			c0.054,0.008,0.108,0.013,0.163,0.013h7.673c0.558,0,1.034-0.407,1.121-0.958l1.901-12.049c0.087-0.552,0.562-0.958,1.121-0.958
			h6.976c8.151,0,15.068-5.947,16.331-14.005c1.275-8.126-5.073-15.213-14.071-15.23H-673.794z M-666.335,148.336h5.581
			c4.595,0,6.091,2.711,5.618,5.71c-0.473,3.005-2.796,5.218-7.242,5.218h-5.681L-666.335,148.336z M-629.619,151.125
			c-1.937,0.007-4.167,0.404-6.669,1.447c-5.741,2.393-8.498,7.338-9.669,10.944c0,0-3.725,11,4.694,17.043
			c0,0,7.806,5.818,16.597-0.358l-0.152,0.965c-0.09,0.573,0.302,1.111,0.875,1.201c0.054,0.008,0.108,0.013,0.163,0.013h7.283
			c0.559,0,1.034-0.407,1.121-0.958l4.432-28.097c0.091-0.573-0.3-1.111-0.873-1.202c-0.054-0.009-0.109-0.013-0.164-0.013h-7.284
			c-0.559,0-1.034,0.407-1.121,0.958l-0.238,1.512C-620.624,154.578-623.805,151.104-629.619,151.125L-629.619,151.125z
			 M-629.381,160c0.836,0,1.601,0.115,2.288,0.336c3.143,1.009,4.924,4.028,4.409,7.3c-0.636,4.03-3.94,6.997-8.179,6.997
			c-0.836,0-1.601-0.115-2.288-0.335c-3.142-1.009-4.935-4.028-4.419-7.3C-636.934,162.968-633.619,159.999-629.381,160
			L-629.381,160z"/>
		<path fill="#003087" d="M-712.378,152.108c-0.577,0-0.988,0.564-0.812,1.113l7.985,24.779l-7.22,11.677
			c-0.35,0.567,0.057,1.299,0.723,1.299h8.534c0.496,0,0.956-0.26,1.213-0.685l22.302-36.893c0.342-0.567-0.067-1.292-0.729-1.292
			h-8.533c-0.501,0-0.965,0.265-1.22,0.697l-8.778,14.821l-4.456-14.711c-0.145-0.479-0.587-0.807-1.087-0.807L-712.378,152.108z"/>
		<path fill="#0070E0" d="M-602.668,139.177c-0.558,0-1.034,0.407-1.121,0.958l-6.471,41.027c-0.091,0.573,0.3,1.111,0.873,1.202
			c0.054,0.009,0.109,0.013,0.165,0.013h7.673c0.558,0,1.034-0.407,1.121-0.958l6.47-41.029c0.09-0.573-0.302-1.111-0.875-1.201
			c-0.053-0.008-0.107-0.013-0.161-0.013L-602.668,139.177z"/>
		<path fill="#001C64" d="M-842.646,139.177c-1.021,0.001-1.89,0.744-2.05,1.752l-3.406,21.6c0.159-1.009,1.028-1.752,2.05-1.752
			h9.98c10.044,0,18.566-7.327,20.124-17.256c0.116-0.741,0.182-1.49,0.196-2.24c-2.552-1.338-5.551-2.104-8.836-2.104H-842.646z"/>
		<path fill="#0070E0" d="M-815.752,141.282c-0.015,0.75-0.081,1.498-0.196,2.24c-1.557,9.929-10.081,17.256-20.124,17.256h-9.98
			c-1.021,0-1.891,0.743-2.05,1.752l-3.131,19.849l-1.961,12.452c-0.146,0.918,0.48,1.782,1.398,1.928
			c0.088,0.014,0.177,0.021,0.266,0.021h10.832c1.021-0.001,1.89-0.744,2.05-1.752l2.853-18.096c0.16-1.009,1.03-1.752,2.051-1.752
			h6.378c10.044,0,18.566-7.327,20.124-17.256C-806.138,150.875-809.687,144.463-815.752,141.282L-815.752,141.282z"/>
		<path fill="#003087" d="M-854.952,124.779c-1.021,0-1.891,0.743-2.05,1.751l-8.5,53.9c-0.161,1.023,0.629,1.949,1.666,1.949
			h12.605l3.13-19.849l3.406-21.6c0.16-1.008,1.029-1.751,2.05-1.752h18.058c3.286,0,6.284,0.767,8.836,2.104
			c0.175-9.04-7.284-16.503-17.54-16.503H-854.952z"/>
	</g>
</g>
</svg>
